<?xml version="1.0" encoding="utf-8"?>
<!-- Generated by IcoMoon.io -->
<!DOCTYPE svg PUBLIC "-//W3C//DTD SVG 1.1//EN" "http://www.w3.org/Graphics/SVG/1.1/DTD/svg11.dtd">
<svg version="1.1" xmlns="http://www.w3.org/2000/svg" xmlns:xlink="http://www.w3.org/1999/xlink" width="85" height="128" viewBox="0 0 85 128">
<g>
</g>
	<path d="M65.438 76.125c-2.84 2.804-4.831 0.545-5.776-1.074-0.655-1.555-1.578-3.137-2.904-4.567-3.153-3.4-7.732-5.123-13.614-5.123-5.896 0-10.478 1.725-13.615 5.126-0.96 1.041-1.704 2.163-2.291 3.295l0.002-0.011c0 0-2.832 6.109-7.286 2.484-3.836-3.122 3.209 4.692 5.241 6.924 0.006 0.133 0.012 0.235 0.014 0.262l0.058 0.714 0.544 0.465c0.254 0.218 6.351 5.345 16.542 5.346 0 0 0 0 0.002 0 5.867 0 11.178-2.326 17.2-5.692l1.532-0.765h0.072c0.003-0.045 0.016-0.252 0.021-0.565 1.956-2.574 7.681-10.197 4.26-6.819zM43.18 81.184c-5.92 6.182-14.524 1.235-14.524 1.235 0.020-1.766 0.39-6.305 3.444-9.599 2.454-2.645 6.169-3.987 11.042-3.987 4.862 0 8.578 1.342 11.045 3.99 3.004 3.221 3.46 7.635 3.51 9.515-11.303 4.579-14.518-1.154-14.518-1.154z" fill="#000000" />
</svg>
