<?xml version="1.0" encoding="utf-8"?>
<!-- Generated by IcoMoon.io -->
<!DOCTYPE svg PUBLIC "-//W3C//DTD SVG 1.1//EN" "http://www.w3.org/Graphics/SVG/1.1/DTD/svg11.dtd">
<svg version="1.1" xmlns="http://www.w3.org/2000/svg" xmlns:xlink="http://www.w3.org/1999/xlink" width="85" height="128" viewBox="0 0 85 128">
<g>
</g>
	<path d="M25.498 90.088c-11.827 6.004-19.175 17.968-19.175 31.222 0 0.677 0.55 1.227 1.227 1.227s1.227-0.549 1.227-1.227c0-12.326 6.832-23.452 17.831-29.035 0.604-0.307 0.845-1.044 0.539-1.649-0.306-0.604-1.043-0.844-1.648-0.539z" fill="#000000" />
	<path d="M61.478 90.5c-0.602-0.309-1.343-0.070-1.651 0.532-0.309 0.603-0.070 1.342 0.532 1.651 10.931 5.602 17.721 16.706 17.721 28.979 0 0.677 0.55 1.227 1.227 1.227s1.227-0.549 1.227-1.227c0.001-13.198-7.301-25.139-19.055-31.163z" fill="#000000" />
</svg>
