<?xml version="1.0" encoding="utf-8"?>
<!-- Generated by IcoMoon.io -->
<!DOCTYPE svg PUBLIC "-//W3C//DTD SVG 1.1//EN" "http://www.w3.org/Graphics/SVG/1.1/DTD/svg11.dtd">
<svg version="1.1" xmlns="http://www.w3.org/2000/svg" xmlns:xlink="http://www.w3.org/1999/xlink" width="85" height="128" viewBox="0 0 85 128">
<g>
</g>
	<path d="M49.841 73.041c-1.922 1.451-4.214 2.218-6.629 2.218-2.645 0-5.202-0.951-7.2-2.68-0.504-0.434-1.262-0.38-1.695 0.123-0.434 0.502-0.379 1.261 0.123 1.695 2.434 2.106 5.551 3.266 8.772 3.266 2.942 0 5.734-0.936 8.079-2.704 0.529-0.4 0.635-1.153 0.235-1.683-0.401-0.531-1.155-0.635-1.684-0.235z" fill="#000000" />
	<path d="M72.772 60.792c0-16.474-13.403-29.876-29.876-29.876s-29.877 13.404-29.877 29.876c0 16.474 13.403 29.878 29.877 29.878 16.474 0 29.876-13.404 29.876-29.878zM70.212 60.792c0 15.063-12.254 27.317-27.316 27.317-15.062 0-27.316-12.254-27.316-27.317 0-15.062 12.254-27.316 27.316-27.316 15.061 0 27.316 12.255 27.316 27.316z" fill="#000000" />
</svg>
