<?xml version="1.0" encoding="utf-8"?>
<!-- Generated by IcoMoon.io -->
<!DOCTYPE svg PUBLIC "-//W3C//DTD SVG 1.1//EN" "http://www.w3.org/Graphics/SVG/1.1/DTD/svg11.dtd">
<svg version="1.1" xmlns="http://www.w3.org/2000/svg" xmlns:xlink="http://www.w3.org/1999/xlink" width="85" height="128" viewBox="0 0 85 128">
<g>
</g>
	<path d="M49.841 73.040c-1.921 1.452-4.214 2.219-6.629 2.219-2.645 0-5.202-0.951-7.2-2.68-0.504-0.434-1.262-0.38-1.695 0.123-0.434 0.502-0.379 1.261 0.123 1.695 2.434 2.106 5.551 3.265 8.772 3.265 2.942 0 5.736-0.934 8.079-2.703 0.53-0.4 0.635-1.153 0.235-1.683-0.401-0.53-1.155-0.636-1.684-0.236z" fill="#000000" />
	<path d="M72.773 60.794c0-16.474-13.403-29.877-29.877-29.877s-29.877 13.403-29.877 29.877 13.403 29.877 29.877 29.877 29.877-13.404 29.877-29.877zM70.212 60.794c0 15.062-12.254 27.316-27.316 27.316s-27.317-12.254-27.317-27.316 12.254-27.316 27.316-27.316 27.317 12.254 27.317 27.316z" fill="#000000" />
	<path d="M35.238 57.639c0 1.158-0.939 2.097-2.097 2.097-1.158 0-2.097-0.939-2.097-2.097 0-1.158 0.939-2.097 2.097-2.097 1.158 0 2.097 0.939 2.097 2.097z" fill="#000000" />
	<path d="M55.575 57.601c0 1.158-0.939 2.097-2.097 2.097-1.158 0-2.097-0.939-2.097-2.097 0-1.158 0.939-2.097 2.097-2.097 1.158 0 2.097 0.939 2.097 2.097z" fill="#000000" />
</svg>
