<?xml version="1.0" encoding="utf-8"?>
<!-- Generated by IcoMoon.io -->
<!DOCTYPE svg PUBLIC "-//W3C//DTD SVG 1.1//EN" "http://www.w3.org/Graphics/SVG/1.1/DTD/svg11.dtd">
<svg version="1.1" xmlns="http://www.w3.org/2000/svg" xmlns:xlink="http://www.w3.org/1999/xlink" width="85" height="128" viewBox="0 0 85 128">
<g>
</g>
	<path d="M51.928 67.393c-0.116 0.097-0.243 0.194-0.359 0.303-0.54 0.504-1.169 0.765-1.906 0.612-0.4-0.082-0.792-0.221-1.17-0.379-0.619-0.258-1.216-0.567-1.834-0.827-0.464-0.194-0.956-0.298-1.466-0.255-0.651 0.054-1.193 0.346-1.661 0.784-0.222 0.208-0.426 0.436-0.635 0.653-0.217-0.224-0.422-0.46-0.652-0.67-0.549-0.506-1.187-0.81-1.95-0.776-0.561 0.023-1.085 0.204-1.591 0.434-0.594 0.271-1.181 0.56-1.78 0.817-0.43 0.184-0.884 0.293-1.36 0.25-0.658-0.061-1.152-0.414-1.574-0.891-0.032-0.036-0.046-0.090-0.068-0.135-0.018 0.017-0.037 0.034-0.056 0.051 0.018 0.654 0.203 1.262 0.525 1.828 0.76 1.333 1.889 2.235 3.321 2.743 1.836 0.652 3.547 0.424 5.077-0.831 0.090-0.074 0.139-0.055 0.225 0.005 0.317 0.223 0.627 0.465 0.97 0.642 1.224 0.63 2.511 0.692 3.809 0.283 1.654-0.523 2.94-1.518 3.738-3.086 0.253-0.499 0.386-1.031 0.398-1.556z" fill="#000000" />
	<path d="M51.928 67.393c-0.012 0.525-0.145 1.057-0.398 1.554-0.798 1.568-2.083 2.563-3.738 3.086-1.298 0.41-2.584 0.348-3.809-0.283-0.342-0.176-0.653-0.419-0.97-0.642-0.086-0.061-0.136-0.079-0.225-0.005-1.532 1.254-3.243 1.484-5.077 0.831-1.431-0.509-2.561-1.41-3.321-2.743-0.322-0.566-0.508-1.174-0.525-1.828 0.018-0.017 0.037-0.034 0.056-0.051 0.022 0.046 0.036 0.098 0.068 0.135 0.422 0.477 0.916 0.83 1.574 0.891 0.476 0.044 0.93-0.065 1.36-0.25 0.6-0.257 1.186-0.546 1.78-0.817 0.507-0.23 1.030-0.411 1.591-0.434 0.763-0.032 1.401 0.272 1.95 0.776 0.228 0.21 0.434 0.445 0.652 0.67 0.21-0.216 0.413-0.445 0.635-0.653 0.468-0.438 1.010-0.73 1.661-0.784 0.51-0.043 1.002 0.061 1.466 0.255 0.619 0.259 1.215 0.569 1.834 0.827 0.378 0.158 0.77 0.296 1.17 0.379 0.738 0.151 1.366-0.108 1.906-0.612 0.116-0.107 0.243-0.204 0.359-0.301z" fill="#000000" />
</svg>
