<?xml version="1.0" encoding="utf-8"?>
<!-- Generated by IcoMoon.io -->
<!DOCTYPE svg PUBLIC "-//W3C//DTD SVG 1.1//EN" "http://www.w3.org/Graphics/SVG/1.1/DTD/svg11.dtd">
<svg version="1.1" xmlns="http://www.w3.org/2000/svg" xmlns:xlink="http://www.w3.org/1999/xlink" width="85" height="128" viewBox="0 0 85 128">
<g>
</g>
	<path d="M68.244 50.038h-22.448l-2.738-2.384-2.572 2.384h-22.94c-0.677 0-1.227-0.549-1.227-1.227s0.549-1.227 1.227-1.227h21.978l3.483-3.229 3.709 3.229h21.53c0.677 0 1.227 0.549 1.227 1.227s-0.549 1.227-1.228 1.227z" fill="#000000" />
	<path d="M56.513 36.307c-0.677 0-1.227-0.549-1.227-1.227 0-6.757-5.498-12.255-12.255-12.255s-12.255 5.498-12.255 12.255c0 0.677-0.549 1.227-1.227 1.227s-1.227-0.549-1.227-1.227c0-8.11 6.598-14.708 14.708-14.708 8.11 0 14.708 6.598 14.708 14.708 0 0.678-0.548 1.227-1.227 1.227z" fill="#000000" />
</svg>
