<?xml version="1.0" encoding="utf-8"?>
<!-- Generated by IcoMoon.io -->
<!DOCTYPE svg PUBLIC "-//W3C//DTD SVG 1.1//EN" "http://www.w3.org/Graphics/SVG/1.1/DTD/svg11.dtd">
<svg version="1.1" xmlns="http://www.w3.org/2000/svg" xmlns:xlink="http://www.w3.org/1999/xlink" width="85" height="128" viewBox="0 0 85 128">
<g>
</g>
	<path d="M70.259 52.803l-1.121-2.184-8.456 4.342c-1.104-3.089-4.053-5.311-7.517-5.311-3.947 0-7.224 2.88-7.866 6.646-1.514-0.629-2.996-0.43-4.189 0.065-0.614-3.798-3.907-6.712-7.875-6.712-3.563 0-6.588 2.347-7.613 5.574l-8.97-4.607-1.121 2.184 9.724 4.994c0.085 4.331 3.629 7.832 7.98 7.832 3.871 0 7.106-2.77 7.833-6.432 0.642-0.504 2.422-1.587 4.264-0.006 0.724 3.665 3.961 6.438 7.834 6.438 4.404 0 7.988-3.584 7.988-7.988 0-0.052-0.006-0.103-0.008-0.156l9.113-4.681zM33.235 63.173c-3.051 0-5.534-2.482-5.534-5.534 0-3.051 2.482-5.534 5.534-5.534s5.534 2.482 5.534 5.534c0 3.052-2.482 5.534-5.534 5.534zM53.166 63.173c-3.051 0-5.534-2.482-5.534-5.534 0-3.051 2.482-5.534 5.534-5.534 3.052 0 5.534 2.482 5.534 5.534 0 3.052-2.482 5.534-5.534 5.534z" fill="#000000" />
</svg>
