<?xml version="1.0" encoding="utf-8"?>
<!-- Generated by IcoMoon.io -->
<!DOCTYPE svg PUBLIC "-//W3C//DTD SVG 1.1//EN" "http://www.w3.org/Graphics/SVG/1.1/DTD/svg11.dtd">
<svg version="1.1" xmlns="http://www.w3.org/2000/svg" xmlns:xlink="http://www.w3.org/1999/xlink" width="85" height="128" viewBox="0 0 85 128">
<g>
</g>
	<path d="M7.491 121.387h71.704l-1.305-9.572-7.31-12.879-6.875-5.656-13.827 12.965-4.273-3.045-3.087 2.262-2.743-2.262-4.492 3.045-12.912-12.618-9.352 9.137-5.876 18.622z" fill="#000000" />
	<path d="M45.101 102.871l5.133 3.626 13.745-13.876-5.115-4.324z" fill="#000000" />
	<path d="M42.205 103.387l-4.821 4.242-14.2-14.349 5-4.117z" fill="#000000" />
	<path d="M46.252 104.306l-3.367 2.823-3.423-2.826 1.532-1.918 1.878 1.551 1.939-1.624z" fill="#000000" />
	<path d="M49.342 108.888l-7.137-5.040 15.532-16.448 7.014 5.931-15.409 15.557zM45.932 103.476l3.13 2.21 12.079-12.195-3.214-2.718-11.995 12.703z" fill="#000000" />
	<path d="M21.558 93.331l7.014-5.931 15.532 16.448-7.137 5.040-15.409-15.557zM28.383 90.773l-3.214 2.718 12.079 12.195 3.13-2.21-11.995-12.703z" fill="#000000" />
	<path d="M42.878 122.537c-0.677 0-1.227-0.55-1.227-1.227v-15.776c0-0.677 0.549-1.227 1.227-1.227 0.677 0 1.227 0.55 1.227 1.227v15.776c0 0.676-0.549 1.227-1.227 1.227z" fill="#000000" />
</svg>
