<?xml version="1.0" encoding="utf-8"?>
<!-- Generated by IcoMoon.io -->
<!DOCTYPE svg PUBLIC "-//W3C//DTD SVG 1.1//EN" "http://www.w3.org/Graphics/SVG/1.1/DTD/svg11.dtd">
<svg version="1.1" xmlns="http://www.w3.org/2000/svg" xmlns:xlink="http://www.w3.org/1999/xlink" width="85" height="128" viewBox="0 0 85 128">
<g>
</g>
	<path d="M18.561 48.62c-0.677 0-1.227-0.55-1.227-1.227s0.549-1.227 1.227-1.227c25.199 0 36.979-10.904 37.094-11.014 0.491-0.466 1.266-0.446 1.733 0.043 0.467 0.491 0.449 1.265-0.039 1.732-0.499 0.476-12.528 11.693-38.788 11.693z" fill="#000000" />
	<path d="M67.82 48.218c-13.488 0-17.182-7.889-17.332-8.224-0.277-0.618-0.001-1.344 0.618-1.621 0.614-0.279 1.339-0.004 1.618 0.61 0.136 0.291 3.301 6.78 15.097 6.78 0.677 0 1.227 0.55 1.227 1.227s-0.549 1.229-1.227 1.229z" fill="#000000" />
</svg>
