<?xml version="1.0" encoding="utf-8"?>
<!-- Generated by IcoMoon.io -->
<!DOCTYPE svg PUBLIC "-//W3C//DTD SVG 1.1//EN" "http://www.w3.org/Graphics/SVG/1.1/DTD/svg11.dtd">
<svg version="1.1" xmlns="http://www.w3.org/2000/svg" xmlns:xlink="http://www.w3.org/1999/xlink" width="85" height="128" viewBox="0 0 85 128">
<g>
</g>
	<path d="M33.209 64.749c-2.216 0-3.9-1.277-4.645-2.233-0.363-0.464-0.28-1.134 0.183-1.496 0.462-0.362 1.131-0.283 1.493 0.179 0.211 0.261 2.128 2.482 5.172 0.785 0.516-0.284 1.165-0.102 1.451 0.414 0.287 0.514 0.102 1.164-0.413 1.451-1.162 0.648-2.255 0.9-3.242 0.9z" fill="#000000" />
	<path d="M53.743 64.749c-0.987 0-2.079-0.253-3.243-0.9-0.514-0.288-0.7-0.937-0.413-1.451 0.287-0.515 0.937-0.697 1.451-0.414 3.14 1.752 5.087-0.677 5.168-0.78 0.363-0.466 1.034-0.547 1.498-0.184s0.546 1.034 0.184 1.496c-0.745 0.956-2.428 2.233-4.644 2.233z" fill="#000000" />
</svg>
