<?xml version="1.0" encoding="utf-8"?>
<!-- Generator: Adobe Illustrator 17.1.0, SVG Export Plug-In . SVG Version: 6.00 Build 0)  -->
<!DOCTYPE svg PUBLIC "-//W3C//DTD SVG 1.1//EN" "http://www.w3.org/Graphics/SVG/1.1/DTD/svg11.dtd">
<svg version="1.1" xmlns="http://www.w3.org/2000/svg" xmlns:xlink="http://www.w3.org/1999/xlink" x="0px" y="0px"
	 viewBox="0 0 79.999 120" enable-background="new 0 0 79.999 120" xml:space="preserve">
<g id="Kropp" display="none">
	<path display="inline" d="M57.635,84.844c-0.033-0.017-0.069-0.015-0.102-0.029c-0.098-0.041-0.195-0.071-0.3-0.084
		c-0.031-0.003-0.061-0.003-0.092-0.004c-0.126-0.006-0.247,0.008-0.371,0.045c-0.009,0.003-0.018,0.007-0.027,0.01
		c-0.086,0.028-0.174,0.044-0.254,0.093c-4.453,2.744-9.788,4.193-15.428,4.193c-5.814,0-11.491-1.614-15.985-4.547
		c-0.066-0.044-0.141-0.057-0.212-0.085c-0.043-0.018-0.083-0.039-0.129-0.051c-0.083-0.022-0.163-0.028-0.247-0.031
		c-0.074-0.004-0.145-0.007-0.219,0.003c-0.056,0.009-0.106,0.027-0.16,0.044c-0.068,0.02-0.138,0.023-0.204,0.056
		c-11.088,5.629-17.977,16.845-17.977,29.271c0,0.635,0.516,1.149,1.15,1.149c0.634,0,1.15-0.515,1.15-1.149
		c0-11.353,6.191-21.607,16.185-26.927c4.765,2.94,10.639,4.567,16.648,4.567c5.82,0,11.34-1.458,16.032-4.194
		c9.945,5.332,16.106,15.573,16.106,26.885c0,0.636,0.516,1.15,1.15,1.15c0.635,0,1.15-0.515,1.15-1.15
		C75.5,101.686,68.655,90.491,57.635,84.844z"/>
	<circle display="inline" fill="#FFFFFF" cx="-61.515" cy="72.652" r="8.875"/>
</g>
<g id="Body_x5F_color" display="none">
</g>
<g id="head_x5F_color" display="none">
	<circle display="inline" fill="#FFFFFF" cx="40.214" cy="56.994" r="26.5"/>
</g>
<g id="Huvud" display="none">
	<path display="inline" d="M46.726,68.476c-1.802,1.36-3.951,2.079-6.215,2.079c-2.48,0-4.877-0.892-6.75-2.512
		c-0.472-0.407-1.183-0.356-1.589,0.115c-0.407,0.471-0.355,1.182,0.115,1.589c2.282,1.974,5.204,3.062,8.224,3.062
		c2.758,0,5.376-0.877,7.574-2.535c0.496-0.375,0.595-1.081,0.22-1.578C47.929,68.198,47.222,68.101,46.726,68.476z"/>
	<path display="inline" d="M68.224,56.993c0-15.444-12.565-28.009-28.009-28.009c-15.444,0-28.01,12.566-28.01,28.009
		c0,15.444,12.565,28.011,28.01,28.011C55.659,85.004,68.224,72.438,68.224,56.993z M65.824,56.993
		c0,14.122-11.488,25.61-25.609,25.61c-14.121,0-25.609-11.488-25.609-25.61c0-14.121,11.488-25.609,25.609-25.609
		C54.335,31.384,65.824,42.873,65.824,56.993z"/>
	<circle display="inline" cx="31.07" cy="54.037" r="1.967"/>
	<circle display="inline" cx="50.135" cy="54.001" r="1.967"/>
</g>
<g id="eyes">
	<circle cx="31.07" cy="54.037" r="1.967"/>
	<circle cx="50.135" cy="54.001" r="1.967"/>
</g>
<g id="Hipster_x5F_cap" display="none">
	<g display="inline">
		<path d="M14.488,46.143c-0.555,0-1.044-0.403-1.134-0.969c-0.1-0.628,0.327-1.217,0.954-1.317l47.65-7.612
			c0.639-0.101,1.218,0.328,1.317,0.954c0.1,0.627-0.327,1.217-0.954,1.317l-47.65,7.612C14.61,46.138,14.549,46.143,14.488,46.143z
			"/>
	</g>
</g>
<g display="none">
	<ellipse display="inline" cx="41.62" cy="11.059" rx="13.688" ry="3.188"/>
	<path display="inline" d="M27.936,10.896l-4.617,24.659c0,0,11.471,1,17.447,1c5.977,0,17.447-1,17.447-1l-2.906-24.496
		L27.936,10.896z"/>
	<circle display="inline" cx="22.002" cy="38.201" r="1.776"/>
	<polygon display="inline" points="20.687,37.768 19.853,47.948 20.894,37.781 20.232,47.973 21.1,37.795 20.978,47.147 
		21.526,38.696 21.692,47.318 21.833,37.167 	"/>
	<polygon display="inline" points="20.981,38.08 20.147,48.26 21.188,38.094 20.526,48.284 21.395,38.107 21.272,47.459 
		21.82,39.008 21.987,47.63 22.127,37.479 	"/>
	<polygon display="inline" points="22.178,38.158 21.345,48.337 22.385,38.171 21.724,48.362 22.592,38.185 22.469,47.537 
		23.018,39.086 23.184,47.708 23.324,37.557 	"/>
	<polygon display="inline" points="22.178,38.158 21.345,48.337 22.385,38.171 21.724,48.362 22.592,38.185 22.469,47.537 
		23.018,39.086 23.184,47.708 23.324,37.557 	"/>
	<polygon display="inline" points="21.13,37.944 20.297,48.123 21.337,37.957 20.676,48.148 21.545,37.971 21.422,47.322 
		21.97,38.871 22.137,47.493 22.277,37.342 	"/>
	<polygon display="inline" points="21.425,38.256 20.591,48.436 21.632,38.27 20.971,48.46 21.838,38.283 21.716,47.634 
		22.265,39.184 22.431,47.806 22.571,37.654 	"/>
	<polygon display="inline" points="22.622,38.333 21.789,48.513 22.829,38.347 22.168,48.537 23.036,38.36 22.913,47.712 
		23.462,39.261 23.628,47.884 23.765,37.99 	"/>
	<polygon display="inline" points="22.622,38.333 21.789,48.513 22.829,38.347 22.168,48.537 23.036,38.36 22.913,47.712 
		23.462,39.261 23.628,47.884 23.765,37.99 	"/>
	<polygon display="inline" points="20.272,37.803 19.38,48.215 20.42,38.049 19.759,48.239 20.627,38.062 20.504,47.414 
		21.053,38.963 21.22,47.585 21.36,37.434 	"/>
	<polygon display="inline" points="20.508,38.348 19.674,48.527 20.715,38.361 20.054,48.552 20.921,38.375 20.799,47.727 
		21.348,39.275 21.514,47.897 21.654,37.746 	"/>
	<polygon display="inline" points="21.705,38.425 20.872,48.605 21.912,38.438 21.25,48.63 22.119,38.452 21.996,47.804 
		22.545,39.353 22.712,47.975 22.852,37.824 	"/>
	<polygon display="inline" points="21.705,38.425 20.872,48.605 21.912,38.438 21.25,48.63 22.119,38.452 21.996,47.804 
		22.545,39.353 22.712,47.975 22.852,37.824 	"/>
	<polygon display="inline" points="20.658,38.211 19.824,48.391 20.865,38.225 20.204,48.415 21.071,38.238 20.949,47.589 
		21.497,39.138 21.664,47.76 21.804,37.609 	"/>
	<polygon display="inline" points="20.952,38.523 20.119,48.703 21.159,38.537 20.498,48.728 21.366,38.55 21.243,47.902 
		21.792,39.451 21.958,48.072 22.098,37.922 	"/>
	<polygon display="inline" points="22.149,38.6 21.316,48.78 22.356,38.614 21.695,48.806 22.563,38.628 22.441,47.979 
		22.989,39.529 23.155,48.15 23.295,38 	"/>
	<polygon display="inline" points="22.149,38.6 21.316,48.78 22.356,38.614 21.695,48.806 22.563,38.628 22.441,47.979 
		22.989,39.529 23.155,48.15 23.295,38 	"/>
	<path display="inline" d="M27.936,10.896c0,0-5.797,19.736-6.174,27.518"/>
</g>
<g id="sjömansmössa" display="none">
	<g display="inline">
		<polygon fill="#FFFFFF" points="46.235,9.527 35.515,21.764 44.189,27.905 52.688,27.562 		"/>
		<path d="M44.189,29.255c-0.279,0-0.552-0.086-0.78-0.248l-8.674-6.141c-0.312-0.221-0.516-0.564-0.561-0.943
			c-0.045-0.38,0.073-0.761,0.325-1.048l10.72-12.237c0.315-0.36,0.8-0.525,1.268-0.437c0.471,0.089,0.858,0.421,1.019,0.872
			l6.453,18.035c0.145,0.404,0.088,0.853-0.152,1.209c-0.24,0.356-0.636,0.577-1.064,0.594l-8.499,0.342
			C44.225,29.254,44.207,29.255,44.189,29.255z M37.517,21.527l7.077,5.01l6.204-0.25l-5.061-14.144L37.517,21.527z"/>
		<path fill="#FFFFFF" d="M43.181,25.893l21.304-7.177l-6.858,17.418c0,0-3.611-8.677-27.136-4.444L23.103,8.688L43.181,25.893z"/>
		<path d="M57.626,37.484c-0.537,0-1.022-0.318-1.237-0.809c-0.062-0.128-2.468-4.798-14.233-4.798
			c-3.369,0-7.213,0.384-11.426,1.142c-0.666,0.125-1.318-0.271-1.524-0.916L21.818,9.101c-0.185-0.575,0.035-1.203,0.538-1.537
			c0.5-0.333,1.166-0.295,1.625,0.1l19.496,16.706l20.577-6.932c0.493-0.169,1.046-0.032,1.409,0.349
			c0.361,0.38,0.47,0.936,0.277,1.425l-6.858,17.418c-0.201,0.512-0.693,0.85-1.243,0.855C57.635,37.484,57.63,37.484,57.626,37.484
			z M42.156,29.176c8.708,0,13.026,2.432,15.062,4.309l4.947-12.563l-18.554,6.25c-0.449,0.151-0.946,0.056-1.31-0.254
			L25.847,12.817l5.57,17.342C35.335,29.507,38.943,29.176,42.156,29.176z"/>
		<line fill="#FFFFFF" x1="45.375" y1="14.309" x2="43.793" y2="23.402"/>
		<path d="M43.794,23.902c-0.029,0-0.058-0.002-0.087-0.007c-0.271-0.047-0.454-0.306-0.406-0.579l1.582-9.094
			c0.047-0.272,0.311-0.451,0.578-0.407c0.271,0.047,0.454,0.306,0.406,0.579l-1.582,9.094
			C44.244,23.731,44.033,23.902,43.794,23.902z"/>
	</g>
</g>
<g id="Top_hat" display="none">
	<g display="inline">
		<polygon fill="#FFFFFF" points="21.412,24.57 21.412,32.236 15.103,32.236 15.103,37.57 65.103,37.57 65.103,32.57 56.936,32.57 
			56.936,17.049 22.77,16.091 22.77,24.57 		"/>
		<path d="M58.587,31.375V26.07V5.403H21.412V26.07v5.305H13.75v7.028h6.233h40.035h6.232v-7.028H58.587z M23.412,7.403h33.175
			V26.07H23.412V7.403z M56.587,28.07v3.305H23.412V28.07H56.587z M64.249,36.403h-4.232H19.983H15.75v-3.028h5.662h2h33.175h2
			h5.662V36.403z"/>
	</g>
</g>
<g id="Propellerhatt" display="none">
	<path display="inline" d="M54.928,33.252c-4.206-2.601-9.026-4.01-13.978-4.122v-3.543c1.121,0.453,2.569,0.671,3.968,0.671
		c2.874,0,5.968-0.912,5.968-2.916c0-2.005-3.094-2.917-5.968-2.917c-1.868,0-3.824,0.388-4.968,1.209
		c-1.144-0.821-3.1-1.209-4.969-1.209c-2.874,0-5.968,0.912-5.968,2.917c0,2.004,3.094,2.916,5.968,2.916
		c1.399,0,2.848-0.218,3.969-0.671v3.567c-4.513,0.223-8.912,1.53-12.798,3.837l-0.785,0.466l0.394,0.825
		c2.029,4.248,7.992,7.101,14.838,7.101c6.63,0,12.532-2.738,14.687-6.814l0.438-0.826L54.928,33.252z M44.918,22.426
		c2.255,0,3.591,0.592,3.919,0.917c-0.328,0.325-1.664,0.916-3.919,0.916c-2.255,0-3.591-0.591-3.919-0.916
		C41.328,23.017,42.664,22.426,44.918,22.426z M34.982,24.259c-2.255,0-3.591-0.591-3.919-0.916
		c0.328-0.326,1.664-0.917,3.919-0.917c2.255,0,3.592,0.591,3.92,0.917C38.574,23.668,37.237,24.259,34.982,24.259z M40.599,39.384
		c-5.518,0-10.497-2.077-12.562-5.146c0.117-0.063,0.231-0.13,0.349-0.191c0.219-0.114,0.44-0.225,0.662-0.333
		c0.279-0.136,0.561-0.266,0.844-0.392c0.225-0.1,0.452-0.197,0.679-0.291c0.289-0.118,0.579-0.228,0.871-0.335
		c0.229-0.084,0.458-0.167,0.689-0.245c0.298-0.1,0.6-0.191,0.902-0.28c0.23-0.068,0.46-0.137,0.692-0.199
		c0.311-0.082,0.625-0.153,0.938-0.224c0.227-0.051,0.454-0.106,0.683-0.151c0.33-0.065,0.662-0.116,0.994-0.168
		c0.216-0.034,0.432-0.073,0.649-0.101c0.369-0.048,0.741-0.08,1.112-0.112c0.183-0.016,0.365-0.04,0.549-0.051
		c0.556-0.036,1.114-0.056,1.673-0.056c0.58,0,1.158,0.021,1.733,0.06c0.19,0.013,0.38,0.038,0.569,0.055
		c0.384,0.034,0.768,0.068,1.148,0.12c0.227,0.03,0.45,0.073,0.676,0.109c0.342,0.055,0.684,0.11,1.022,0.179
		c0.237,0.048,0.473,0.107,0.708,0.162c0.323,0.075,0.646,0.15,0.965,0.238c0.24,0.066,0.479,0.141,0.717,0.213
		c0.31,0.094,0.618,0.191,0.925,0.297c0.239,0.083,0.477,0.173,0.714,0.264c0.299,0.114,0.597,0.232,0.892,0.357
		c0.235,0.1,0.47,0.205,0.702,0.311c0.29,0.133,0.577,0.272,0.862,0.417c0.229,0.116,0.458,0.235,0.684,0.359
		c0.122,0.066,0.241,0.138,0.362,0.207C50.846,37.436,46.025,39.384,40.599,39.384z"/>
</g>
<g id="Knut" display="none">
	<g display="inline">
		<path d="M63.979,46.911H42.934l-2.567-2.235l-2.411,2.235H16.45c-0.635,0-1.149-0.514-1.149-1.15c0-0.635,0.515-1.15,1.149-1.15
			h20.604l3.265-3.027l3.476,3.027h20.184c0.636,0,1.15,0.515,1.15,1.15C65.129,46.396,64.615,46.911,63.979,46.911z"/>
	</g>
	<g display="inline">
		<path d="M52.981,34.039c-0.635,0-1.149-0.515-1.149-1.15c0-6.335-5.154-11.489-11.489-11.489c-6.335,0-11.489,5.154-11.489,11.489
			c0,0.635-0.515,1.15-1.15,1.15c-0.635,0-1.15-0.515-1.15-1.15c0-7.603,6.186-13.789,13.789-13.789
			c7.603,0,13.789,6.186,13.789,13.789C54.131,33.523,53.617,34.039,52.981,34.039z"/>
	</g>
</g>
<g id="Sidbena" display="none">
	<g display="inline">
		<path d="M17.4,45.581c-0.635,0-1.15-0.516-1.15-1.15c0-0.635,0.515-1.15,1.15-1.15c23.625,0,34.669-10.223,34.777-10.326
			c0.46-0.437,1.187-0.418,1.625,0.04c0.438,0.46,0.422,1.186-0.037,1.624C53.297,35.065,42.02,45.581,17.4,45.581z"/>
	</g>
	<g display="inline">
		<path d="M63.581,45.204c-12.644,0-16.107-7.396-16.249-7.71c-0.26-0.579-0.001-1.26,0.579-1.519
			c0.575-0.262,1.255-0.004,1.517,0.572c0.128,0.274,3.096,6.357,14.153,6.357c0.636,0,1.15,0.516,1.15,1.15
			C64.731,44.688,64.216,45.204,63.581,45.204z"/>
	</g>
</g>
<g id="litenhatt" display="none">
	<g display="inline">
		<path fill="#FFFFFF" stroke="#000000" stroke-miterlimit="10" d="M46.831,31.529"/>
		<g>
			
				<ellipse transform="matrix(-0.1832 0.9831 -0.9831 -0.1832 87.3633 -7.5824)" fill="#FFFFFF" cx="46.832" cy="32.502" rx="4.216" ry="18.317"/>
			<path d="M57.551,38.984c-3.417,0-7.464-0.417-11.703-1.208c-7.108-1.324-18.931-4.675-18.155-8.839
				c0.365-1.963,3.119-2.918,8.419-2.918c3.417,0,7.463,0.417,11.703,1.207c4.893,0.911,9.422,2.211,12.755,3.661
				c3.962,1.724,5.728,3.418,5.399,5.18C65.605,38.03,62.851,38.984,57.551,38.984z M36.112,28.319c-4.534,0-6.01,0.795-6.169,1.074
				c0.187,1.062,5.943,4.189,16.327,6.123c4.043,0.753,8.05,1.168,11.281,1.168c4.532,0,6.008-0.795,6.168-1.073
				c-0.187-1.063-5.942-4.19-16.326-6.124C43.35,28.734,39.343,28.319,36.112,28.319z"/>
		</g>
		<g>
			<path fill="#FFFFFF" d="M37.892,29.32c0.879-4.862,5.532-8.091,10.395-7.212c4.861,0.879,8.09,5.533,7.211,10.394"/>
			<path d="M55.499,33.653c-0.067,0-0.137-0.006-0.206-0.019c-0.625-0.113-1.04-0.711-0.927-1.336
				c0.371-2.049-0.079-4.12-1.266-5.831c-1.188-1.711-2.97-2.857-5.018-3.227c-4.228-0.765-8.294,2.055-9.058,6.285
				c-0.113,0.625-0.708,1.036-1.336,0.927c-0.625-0.113-1.04-0.711-0.927-1.336c0.99-5.478,6.25-9.13,11.731-8.139
				c5.479,0.991,9.129,6.253,8.139,11.731C56.529,33.263,56.044,33.653,55.499,33.653z"/>
		</g>
	</g>
</g>
<g id="utlsäppthår" display="none">
	<g display="inline">
		<g>
			<path fill="#FFFFFF" stroke="#000000" stroke-width="2.6" stroke-miterlimit="10" d="M39.464,30.486
				c0,0-21.939,22.071-20.772,58.639C18.692,89.125-2.395,30.846,39.464,30.486z"/>
			<path fill="#FFFFFF" stroke="#000000" stroke-width="2.6" stroke-miterlimit="10" d="M40.902,30.486
				c0,0,21.938,22.071,20.772,58.639C61.674,89.125,82.76,30.846,40.902,30.486z"/>
		</g>
	</g>
</g>
<g id="Hår" display="none">
	<polygon display="inline" fill="#FFFFFF" stroke="#000000" stroke-width="2.6" stroke-miterlimit="10" points="20.301,40.913 
		21.193,47.693 29.103,42.026 37.218,47.693 47.36,42.86 59.212,49.526 61.569,42.877 68.224,48.026 64.027,38.526 70.694,28.984 
		57.744,31.193 55.321,17.86 50.135,28.193 38.027,17.86 36.776,28.193 24.36,21.526 27.693,31.193 15.751,28.182 20.693,35.026 
		13.527,40.36 	"/>
</g>
<g id="hörlurar" display="none">
	<g display="inline">
		<path d="M75.324,58.464c0.119,2.655-1.96,4.903-4.646,5.021l0,0c-2.687,0.117-2.501-1.438-2.62-4.094l-0.354-7.867
			c-0.119-2.655-0.497-5.404,2.188-5.522l0,0c2.686-0.118,4.959,1.938,5.078,4.594L75.324,58.464z"/>
		<path d="M70.405,64.642c-3.304,0-3.393-2.429-3.471-4.571l-0.41-9.122c-0.099-1.887-0.201-3.838,0.92-5.072
			c0.575-0.634,1.383-0.979,2.398-1.023c3.386-0.152,6.131,2.409,6.277,5.691l0.353,7.867c0.072,1.594-0.487,3.119-1.575,4.295
			c-1.084,1.172-2.564,1.856-4.168,1.927C70.617,64.639,70.508,64.642,70.405,64.642z M70.113,47.147l-0.169,0.004
			c-0.574,0.025-0.742,0.211-0.798,0.271c-0.476,0.524-0.396,2.055-0.325,3.405l0.412,9.158c0.086,2.357,0.168,2.357,1.172,2.357
			l0.224-0.005c0.993-0.044,1.91-0.468,2.58-1.191c0.667-0.722,1.01-1.655,0.967-2.63l-0.353-7.867
			C73.734,48.686,72.105,47.147,70.113,47.147z"/>
	</g>
	<g display="inline">
		<path d="M5.542,58.464c-0.12,2.655,1.96,4.903,4.646,5.021l0,0c2.686,0.117,2.5-1.438,2.62-4.094l0.354-7.867
			c0.119-2.655,0.497-5.404-2.188-5.522l0,0c-2.686-0.118-4.959,1.938-5.079,4.594L5.542,58.464z"/>
		<path d="M10.462,64.642L10.462,64.642c-0.104,0-0.212-0.003-0.324-0.008c-1.617-0.07-3.105-0.764-4.192-1.952
			c-1.072-1.172-1.624-2.688-1.553-4.269l0.352-7.867c0.148-3.284,2.925-5.84,6.278-5.691c1.016,0.044,1.823,0.389,2.398,1.022
			c1.12,1.233,1.018,3.185,0.919,5.071l-0.41,9.123C13.853,62.213,13.764,64.642,10.462,64.642z M10.753,47.147
			c-1.992,0-3.621,1.538-3.709,3.501l-0.352,7.867c-0.043,0.967,0.294,1.896,0.952,2.614c0.671,0.733,1.593,1.162,2.596,1.207
			l0.223,0.005c0.003,0,0.007,0,0.011,0c0.994,0,1.075-0.009,1.162-2.355l0.411-9.16c0.071-1.35,0.151-2.88-0.325-3.404
			c-0.055-0.061-0.223-0.246-0.797-0.271L10.753,47.147z"/>
	</g>
	<g display="inline">
		<g>
			<path d="M40.236,25.058v2.158c23.835,0,27.718,20.329,27.718,20.329V47.34C67.954,47.34,64.071,25.058,40.236,25.058z"/>
			<path d="M67.953,48.693c-0.545,0-1.022-0.387-1.128-0.932c-0.154-0.792-4.025-19.396-26.589-19.396
				c-0.635,0-1.15-0.515-1.15-1.15v-2.158c0-0.635,0.515-1.15,1.15-1.15c24.518,0,28.81,23.002,28.851,23.235
				c0.012,0.065,0.018,0.131,0.018,0.197v0.204c0,0.592-0.451,1.087-1.04,1.144C68.026,48.691,67.99,48.693,67.953,48.693z"/>
		</g>
		<g>
			<path d="M12.282,47.34v0.204c0,0,3.883-20.329,27.718-20.329v-2.158C16.165,25.058,12.282,47.34,12.282,47.34z"/>
			<path d="M12.283,48.693c-0.037,0-0.074-0.002-0.111-0.006c-0.59-0.057-1.04-0.551-1.04-1.144V47.34
				c0-0.066,0.005-0.132,0.017-0.197C11.19,46.91,15.482,23.908,40,23.908c0.635,0,1.15,0.515,1.15,1.15v2.158
				c0,0.635-0.515,1.15-1.15,1.15c-22.563,0-26.435,18.604-26.588,19.396C13.306,48.306,12.828,48.693,12.283,48.693z"/>
		</g>
	</g>
</g>
<g id="student" display="none">
	<g display="inline">
		<polygon stroke="#000000" stroke-miterlimit="10" points="75.081,16.916 34.819,31.029 4.919,21.507 40,4.315 		"/>
		<path d="M25.575,24.359v10.166c0,0,14.436-8.5,26.527-1.5l0.758-14.166L25.575,24.359z"/>
		<polygon points="23.652,33.689 21.86,33.689 21.86,46.697 23.652,45.886 25.444,46.697 25.444,33.689 		"/>
		<polygon points="23.652,23.564 23.069,23.564 23.069,39.125 23.652,38.154 24.235,39.125 24.235,23.564 		"/>
		<line x1="21.86" y1="25.693" x2="23.652" y2="25.693"/>
	</g>
</g>
<g id="Layer_22" display="none">
	<g display="inline">
		<path d="M55.958,49.88c0,4.552-2.607,8.243-5.821,8.243c-3.216,0-5.821-3.691-5.821-8.243H55.958z"/>
		<path d="M50.136,59.273c-3.844,0-6.972-4.214-6.972-9.394c0-0.635,0.516-1.15,1.15-1.15h11.643c0.635,0,1.15,0.516,1.15,1.15
			C57.108,55.06,53.98,59.273,50.136,59.273z M45.529,51.03c0.375,3.32,2.332,5.942,4.608,5.942c2.275,0,4.232-2.622,4.607-5.942
			H45.529z"/>
	</g>
	<g display="inline">
		<path d="M15.103,47.777c0,0,23.083,1.583,29.212,1.583c6.129,0,21.122-0.475,21.122-0.475"/>
		<path d="M44.315,50.511c-6.098,0-28.347-1.521-29.29-1.586c-0.634-0.044-1.112-0.592-1.069-1.226
			c0.044-0.634,0.587-1.112,1.226-1.069c0.23,0.016,23.114,1.581,29.133,1.581c6.041,0,20.935-0.469,21.086-0.474
			c0.587-0.034,1.165,0.478,1.186,1.113c0.02,0.635-0.479,1.165-1.113,1.185C65.324,50.04,50.392,50.511,44.315,50.511z"/>
	</g>
</g>
<g id="Runda_glasögon" display="none">
	<path display="inline" d="M65.868,49.502l-1.051-2.046l-7.927,4.072c-1.036-2.897-3.8-4.979-7.048-4.979
		c-3.699,0-6.773,2.7-7.374,6.231c-1.419-0.59-2.809-0.402-3.927,0.062c-0.576-3.562-3.663-6.292-7.383-6.292
		c-3.341,0-6.176,2.2-7.137,5.226l-8.409-4.319l-1.051,2.046l9.116,4.683c0.08,4.061,3.402,7.342,7.481,7.342
		c3.629,0,6.662-2.598,7.343-6.03c0.602-0.472,2.271-1.488,3.997-0.006c0.679,3.436,3.713,6.036,7.344,6.036
		c4.129,0,7.489-3.36,7.489-7.489c0-0.05-0.006-0.098-0.007-0.147L65.868,49.502z M31.158,59.225c-2.86,0-5.188-2.328-5.188-5.188
		c0-2.86,2.327-5.188,5.188-5.188c2.86,0,5.188,2.327,5.188,5.188C36.346,56.897,34.019,59.225,31.158,59.225z M49.842,59.225
		c-2.86,0-5.188-2.328-5.188-5.188c0-2.86,2.327-5.188,5.188-5.188c2.861,0,5.188,2.327,5.188,5.188
		C55.031,56.897,52.704,59.225,49.842,59.225z"/>
</g>
<g id="Vanliga_glasögon" display="none">
	<path display="inline" d="M66.421,49.146l-0.579-2.529L58.74,49.95v-2.155H41.625v2.303c-0.498-0.12-0.981-0.082-1.432,0.057v-2.36
		H23.078v2.253l-7.723-3.491l-1.522,2.174l9.315,4.366c0.519,4.227,4.123,7.512,8.488,7.512c4.476,0,8.155-3.458,8.521-7.842
		c0.429-0.219,0.951-0.321,1.501-0.064c0.335,4.414,4.025,7.906,8.523,7.906c4.467,0,8.14-3.441,8.521-7.81L66.421,49.146z
		 M37.722,52.052c0,3.355-2.73,6.087-6.086,6.087c-3.357,0-6.087-2.731-6.087-6.087v-1.786h12.173V52.052z M56.269,52.052
		c0,3.355-2.732,6.087-6.088,6.087c-3.356,0-6.086-2.731-6.086-6.087v-1.786h12.174V52.052z"/>
</g>
<g id="SOLGLASÖGON" display="none">
	<g display="inline">
		<rect x="13.162" y="50.024" width="53.362" height="3"/>
		<rect x="22.995" y="51.236" stroke="#000000" stroke-width="2" stroke-miterlimit="10" width="15.207" height="9.464"/>
		<rect x="42.82" y="51.236" stroke="#000000" stroke-width="2" stroke-miterlimit="10" width="15.207" height="9.464"/>
		<polygon fill="#FFFFFF" points="24.582,60.699 23.43,60.699 30.445,51.235 31.597,51.235 		"/>
		<polygon fill="#FFFFFF" points="28.494,60.699 26.342,60.699 33.357,51.235 35.51,51.235 		"/>
		<polygon fill="#FFFFFF" points="44.713,60.699 43.562,60.699 50.578,51.235 51.729,51.235 		"/>
		<polygon fill="#FFFFFF" points="48.626,60.699 46.474,60.699 53.49,51.235 55.642,51.235 		"/>
	</g>
</g>
<g id="Layer_29" display="none">
</g>
<g id="Trötta_ögon" display="none">
	<g display="inline">
		<path d="M31.133,60.702c-2.078,0-3.656-1.197-4.355-2.093c-0.34-0.434-0.263-1.063,0.172-1.403c0.433-0.339,1.06-0.265,1.4,0.168
			c0.198,0.245,1.995,2.327,4.849,0.736c0.484-0.266,1.092-0.096,1.36,0.388c0.269,0.482,0.096,1.091-0.387,1.36
			C33.083,60.465,32.058,60.702,31.133,60.702z"/>
	</g>
	<g display="inline">
		<path d="M50.383,60.702c-0.925,0-1.949-0.237-3.039-0.844c-0.482-0.27-0.656-0.878-0.387-1.36c0.27-0.483,0.878-0.653,1.36-0.388
			c2.943,1.642,4.769-0.635,4.845-0.731c0.34-0.437,0.969-0.513,1.403-0.173c0.436,0.34,0.513,0.969,0.173,1.403
			C54.04,59.505,52.461,60.702,50.383,60.702z"/>
	</g>
</g>
<g id="Skägg" display="none">
	<path display="inline" d="M61.347,71.367c-2.662,2.628-4.529,0.511-5.414-1.007c-0.614-1.458-1.479-2.94-2.724-4.282
		c-2.955-3.188-7.248-4.804-12.762-4.804c-5.528,0-9.823,1.617-12.764,4.807c-0.9,0.977-1.599,2.027-2.148,3.089l0.001-0.01
		c0,0-2.655,5.727-6.831,2.328c-3.596-2.927,3.008,4.4,4.913,6.491c0.006,0.125,0.012,0.22,0.014,0.246l0.054,0.668l0.511,0.437
		c0.238,0.204,5.954,5.011,15.508,5.012c0,0,0,0,0.002,0c5.5,0,10.479-2.182,16.125-5.336l1.435-0.717h0.067
		c0.003-0.042,0.015-0.236,0.02-0.529C59.188,75.347,64.554,68.2,61.347,71.367z M40.481,76.11
		c-5.55,5.796-13.616,1.157-13.616,1.157c0.019-1.655,0.366-5.91,3.229-8.999c2.301-2.48,5.783-3.738,10.353-3.738
		c4.558,0,8.042,1.259,10.355,3.742c2.816,3.02,3.244,7.157,3.292,8.92C43.495,81.485,40.481,76.11,40.481,76.11z"/>
</g>
<g id="Mustasch" display="none">
	<g id="qe46qW_1_" display="inline">
		<g>
			<path fill="#FFFFFF" d="M48.682,63.181c-0.109,0.091-0.229,0.182-0.338,0.284c-0.506,0.473-1.095,0.716-1.787,0.573
				c-0.374-0.077-0.743-0.207-1.097-0.354c-0.58-0.242-1.14-0.533-1.72-0.775c-0.435-0.183-0.896-0.279-1.374-0.239
				c-0.61,0.051-1.118,0.324-1.557,0.735c-0.208,0.195-0.399,0.408-0.595,0.611c-0.204-0.21-0.397-0.431-0.611-0.628
				c-0.515-0.474-1.112-0.758-1.828-0.729c-0.527,0.022-1.018,0.191-1.492,0.407c-0.557,0.254-1.107,0.525-1.669,0.767
				c-0.403,0.172-0.829,0.274-1.275,0.233c-0.617-0.057-1.08-0.388-1.476-0.835c-0.03-0.034-0.044-0.084-0.065-0.126
				c-0.017,0.016-0.035,0.031-0.052,0.047c0.017,0.613,0.19,1.184,0.492,1.714c0.712,1.25,1.771,2.096,3.113,2.572
				c1.721,0.611,3.325,0.396,4.761-0.779c0.084-0.069,0.13-0.052,0.211,0.005c0.297,0.21,0.588,0.437,0.909,0.603
				c1.148,0.591,2.353,0.648,3.57,0.265c1.552-0.49,2.757-1.423,3.505-2.893C48.546,64.172,48.671,63.673,48.682,63.181z"/>
			<path d="M48.682,63.181c-0.011,0.492-0.136,0.991-0.373,1.457c-0.748,1.471-1.953,2.403-3.505,2.893
				c-1.217,0.384-2.422,0.326-3.57-0.265c-0.321-0.166-0.612-0.393-0.909-0.603c-0.081-0.057-0.127-0.074-0.211-0.005
				c-1.436,1.176-3.04,1.391-4.761,0.779c-1.342-0.477-2.401-1.322-3.113-2.572c-0.302-0.53-0.476-1.101-0.492-1.714
				c0.018-0.016,0.035-0.031,0.052-0.047c0.021,0.042,0.034,0.092,0.065,0.126c0.396,0.447,0.859,0.778,1.476,0.835
				c0.446,0.041,0.872-0.062,1.275-0.233c0.562-0.241,1.112-0.513,1.669-0.767c0.475-0.216,0.965-0.385,1.492-0.407
				c0.715-0.029,1.313,0.255,1.828,0.729c0.214,0.197,0.407,0.418,0.611,0.628c0.196-0.203,0.387-0.416,0.595-0.611
				c0.438-0.411,0.946-0.685,1.557-0.735c0.479-0.04,0.939,0.057,1.374,0.239c0.58,0.242,1.14,0.533,1.72,0.775
				c0.354,0.147,0.723,0.277,1.097,0.354c0.692,0.143,1.281-0.101,1.787-0.573C48.454,63.362,48.573,63.271,48.682,63.181z"/>
		</g>
	</g>
</g>
<g id="påskkinder" display="none">
	<circle display="inline" cx="26.672" cy="62.683" r="2.558"/>
	<circle display="inline" cx="53.92" cy="62.683" r="2.558"/>
</g>
<g id="skägg2" display="none">
	<path display="inline" d="M65.796,58.183c0,0-0.504,11.28-8.437,9.585c-5.171-1.104-7.454-4.068-16.563-4.259
		c-0.085-0.003-0.162-0.018-0.251-0.018c-0.072,0-0.135,0.005-0.206,0.006c-0.071-0.001-0.134-0.006-0.207-0.006
		c-0.089,0-0.165,0.015-0.25,0.018c-9.109,0.19-11.278,4.423-16.563,4.259c-9.772-0.303-8.71-11.112-8.71-11.112
		s-1.27,4.521,1.642,12.122c4.946,12.913,21.019,15.541,23.859,15.908c0.013,0.028,0.023,0.051,0.023,0.051s0.073-0.007,0.207-0.022
		c0.134,0.016,0.206,0.022,0.206,0.022s0.01-0.022,0.023-0.051c2.84-0.367,18.455-3.18,23.859-15.908
		C67.797,60.84,65.796,58.183,65.796,58.183z M49.309,74.047c-4.956,5.188-7.471,3.209-8.764,2.793
		c-1.293,0.416-3.808,2.395-8.764-2.793c-9.127-9.554,8.726-8.645,8.726-8.645h0.075C40.583,65.402,58.436,64.493,49.309,74.047z"/>
</g>
<g id="Fräknar" display="none">
	<circle display="inline" cx="26.672" cy="64.2" r="0.76"/>
	<circle display="inline" cx="28.696" cy="61.923" r="0.76"/>
	<circle display="inline" cx="25.462" cy="61.314" r="0.759"/>
	<circle display="inline" cx="53.919" cy="64.2" r="0.76"/>
	<circle display="inline" cx="51.896" cy="61.923" r="0.76"/>
	<circle display="inline" cx="55.13" cy="61.314" r="0.76"/>
</g>
<g id="Stubb" display="none">
	<g display="inline">
		<g>
			<g>
				<path d="M28.193,74.069c0.322,0,0.322-0.5,0-0.5S27.871,74.069,28.193,74.069L28.193,74.069z"/>
			</g>
		</g>
		<g>
			<g>
				<path d="M25.443,72.111c0.322,0,0.322-0.5,0-0.5S25.121,72.111,25.443,72.111L25.443,72.111z"/>
			</g>
		</g>
		<g>
			<g>
				<path d="M31.568,75.611c0.322,0,0.322-0.5,0-0.5S31.246,75.611,31.568,75.611L31.568,75.611z"/>
			</g>
		</g>
		<g>
			<g>
				<path d="M31.735,78.361c0.322,0,0.322-0.5,0-0.5C31.413,77.861,31.413,78.361,31.735,78.361L31.735,78.361z"/>
			</g>
		</g>
		<g>
			<g>
				<path d="M29.193,77.736c0.322,0,0.322-0.5,0-0.5S28.871,77.736,29.193,77.736L29.193,77.736z"/>
			</g>
		</g>
		<g>
			<g>
				<path d="M25.818,76.028c0.322,0,0.322-0.5,0-0.5S25.496,76.028,25.818,76.028L25.818,76.028z"/>
			</g>
		</g>
		<g>
			<g>
				<path d="M29.443,72.319c0.322,0,0.322-0.5,0-0.5S29.121,72.319,29.443,72.319L29.443,72.319z"/>
			</g>
		</g>
		<g>
			<g>
				<path d="M26.36,69.611c0.322,0,0.322-0.5,0-0.5C26.038,69.111,26.038,69.611,26.36,69.611L26.36,69.611z"/>
			</g>
		</g>
		<g>
			<g>
				<path d="M22.193,66.444c0.322,0,0.322-0.5,0-0.5S21.871,66.444,22.193,66.444L22.193,66.444z"/>
			</g>
		</g>
		<g>
			<g>
				<path d="M22.349,73.11c0.322,0,0.322-0.5,0-0.5C22.026,72.61,22.026,73.11,22.349,73.11L22.349,73.11z"/>
			</g>
		</g>
		<g>
			<g>
				<path d="M23.297,70.279c0.322,0,0.322-0.5,0-0.5S22.975,70.279,23.297,70.279L23.297,70.279z"/>
			</g>
		</g>
		<g>
			<g>
				<path d="M40.944,79.529c0.322,0,0.322-0.5,0-0.5C40.622,79.029,40.622,79.529,40.944,79.529L40.944,79.529z"/>
			</g>
		</g>
		<g>
			<g>
				<path d="M40.444,77.404c0.322,0,0.322-0.5,0-0.5C40.122,76.904,40.122,77.404,40.444,77.404L40.444,77.404z"/>
			</g>
		</g>
		<g>
			<g>
				<path d="M38.194,79.904c0.322,0,0.322-0.5,0-0.5C37.872,79.404,37.872,79.904,38.194,79.904L38.194,79.904z"/>
			</g>
		</g>
		<g>
			<g>
				<path d="M34.235,79.777c0.322,0,0.322-0.5,0-0.5S33.913,79.777,34.235,79.777L34.235,79.777z"/>
			</g>
		</g>
		<g>
			<g>
				<path d="M35.527,76.986c0.322,0,0.322-0.5,0-0.5C35.205,76.486,35.205,76.986,35.527,76.986L35.527,76.986z"/>
			</g>
		</g>
		<g>
			<g>
				<path d="M36.777,75.069c0.322,0,0.322-0.5,0-0.5C36.455,74.569,36.455,75.069,36.777,75.069L36.777,75.069z"/>
			</g>
		</g>
		<g>
			<g>
				<path d="M43.652,68.111c0.322,0,0.322-0.5,0-0.5C43.33,67.611,43.33,68.111,43.652,68.111L43.652,68.111z"/>
			</g>
		</g>
		<g>
			<g>
				<path d="M41.61,68.778c0.322,0,0.322-0.5,0-0.5C41.288,68.278,41.288,68.778,41.61,68.778L41.61,68.778z"/>
			</g>
		</g>
		<g>
			<g>
				<path d="M39.357,67.568c0.322,0,0.322-0.5,0-0.5C39.035,67.068,39.035,67.568,39.357,67.568L39.357,67.568z"/>
			</g>
		</g>
		<g>
			<g>
				<path d="M45.652,78.735c0.322,0,0.322-0.5,0-0.5C45.33,78.235,45.33,78.735,45.652,78.735L45.652,78.735z"/>
			</g>
		</g>
		<g>
			<g>
				<path d="M47.652,76.11c0.322,0,0.322-0.5,0-0.5C47.33,75.61,47.33,76.11,47.652,76.11L47.652,76.11z"/>
			</g>
		</g>
		<g>
			<g>
				<path d="M45.068,75.068c0.322,0,0.322-0.5,0-0.5C44.746,74.568,44.746,75.068,45.068,75.068L45.068,75.068z"/>
			</g>
		</g>
		<g>
			<g>
				<path d="M50.485,75.402c0.322,0,0.322-0.5,0-0.5C50.163,74.902,50.163,75.402,50.485,75.402L50.485,75.402z"/>
			</g>
		</g>
		<g>
			<g>
				<path d="M51.36,73.11c0.322,0,0.322-0.5,0-0.5C51.038,72.61,51.038,73.11,51.36,73.11L51.36,73.11z"/>
			</g>
		</g>
		<g>
			<g>
				<path d="M48.693,73.318c0.322,0,0.322-0.5,0-0.5C48.371,72.818,48.371,73.318,48.693,73.318L48.693,73.318z"/>
			</g>
		</g>
		<g>
			<g>
				<path d="M54.277,74.568c0.322,0,0.322-0.5,0-0.5C53.955,74.068,53.955,74.568,54.277,74.568L54.277,74.568z"/>
			</g>
		</g>
		<g>
			<g>
				<path d="M50.818,78.277c0.322,0,0.322-0.5,0-0.5C50.496,77.777,50.496,78.277,50.818,78.277L50.818,78.277z"/>
			</g>
		</g>
		<g>
			<g>
				<path d="M56.193,73.36c0.322,0,0.322-0.5,0-0.5C55.871,72.86,55.871,73.36,56.193,73.36L56.193,73.36z"/>
			</g>
		</g>
		<g>
			<g>
				<path d="M55.443,70.193c0.322,0,0.322-0.5,0-0.5C55.121,69.693,55.121,70.193,55.443,70.193L55.443,70.193z"/>
			</g>
		</g>
		<g>
			<g>
				<path d="M52.818,70.61c0.322,0,0.322-0.5,0-0.5C52.496,70.11,52.496,70.61,52.818,70.61L52.818,70.61z"/>
			</g>
		</g>
		<g>
			<g>
				<path d="M55.526,67.568c0.322,0,0.322-0.5,0-0.5C55.204,67.068,55.204,67.568,55.526,67.568L55.526,67.568z"/>
			</g>
		</g>
		<g>
			<g>
				<path d="M57.86,65.985c0.322,0,0.322-0.5,0-0.5C57.538,65.485,57.538,65.985,57.86,65.985L57.86,65.985z"/>
			</g>
		</g>
		<g>
			<g>
				<path d="M58.902,70.279c0.322,0,0.322-0.5,0-0.5C58.58,69.779,58.58,70.279,58.902,70.279L58.902,70.279z"/>
			</g>
		</g>
		<g>
			<g>
				<path d="M61.277,64.529c0.322,0,0.322-0.5,0-0.5C60.955,64.029,60.955,64.529,61.277,64.529L61.277,64.529z"/>
			</g>
		</g>
		<g>
			<g>
				<path d="M18.443,65.694c0.322,0,0.322-0.5,0-0.5S18.121,65.694,18.443,65.694L18.443,65.694z"/>
			</g>
		</g>
		<g>
			<g>
				<path d="M17.11,62.777c0.322,0,0.322-0.5,0-0.5C16.788,62.277,16.788,62.777,17.11,62.777L17.11,62.777z"/>
			</g>
		</g>
		<g>
			<g>
				<path d="M15.443,59.444c0.322,0,0.322-0.5,0-0.5S15.121,59.444,15.443,59.444L15.443,59.444z"/>
			</g>
		</g>
		<g>
			<g>
				<path d="M19.11,68.444c0.322,0,0.322-0.5,0-0.5C18.788,67.944,18.788,68.444,19.11,68.444L19.11,68.444z"/>
			</g>
		</g>
		<g>
			<g>
				<path d="M20.193,71.444c0.322,0,0.322-0.5,0-0.5S19.871,71.444,20.193,71.444L20.193,71.444z"/>
			</g>
		</g>
		<g>
			<g>
				<path d="M60.693,68.528c0.322,0,0.322-0.5,0-0.5C60.371,68.028,60.371,68.528,60.693,68.528L60.693,68.528z"/>
			</g>
		</g>
		<g>
			<g>
				<path d="M63.36,62.445c0.322,0,0.322-0.5,0-0.5C63.038,61.945,63.038,62.445,63.36,62.445L63.36,62.445z"/>
			</g>
		</g>
		<g>
			<g>
				<path d="M62.86,65.528c0.322,0,0.322-0.5,0-0.5C62.538,65.028,62.538,65.528,62.86,65.528L62.86,65.528z"/>
			</g>
		</g>
		<g>
			<g>
				<path d="M36.527,68.324c0.322,0,0.322-0.5,0-0.5C36.205,67.824,36.205,68.324,36.527,68.324L36.527,68.324z"/>
			</g>
		</g>
		<g>
			<g>
				<path d="M34.735,66.944c0.322,0,0.322-0.5,0-0.5C34.413,66.444,34.413,66.944,34.735,66.944L34.735,66.944z"/>
			</g>
		</g>
		<g>
			<g>
				<path d="M29.443,68.778c0.322,0,0.322-0.5,0-0.5S29.121,68.778,29.443,68.778L29.443,68.778z"/>
			</g>
		</g>
		<g>
			<g>
				<path d="M50.152,68.027c0.322,0,0.322-0.5,0-0.5C49.83,67.527,49.83,68.027,50.152,68.027L50.152,68.027z"/>
			</g>
		</g>
		<g>
			<g>
				<path d="M63.61,60.527c0.322,0,0.322-0.5,0-0.5C63.288,60.027,63.288,60.527,63.61,60.527L63.61,60.527z"/>
			</g>
		</g>
		<g>
			<g>
				<path d="M64.61,58.902c0.322,0,0.322-0.5,0-0.5C64.288,58.402,64.288,58.902,64.61,58.902L64.61,58.902z"/>
			</g>
		</g>
		
			<path fill="none" stroke="#000000" stroke-width="2.3" stroke-linecap="round" stroke-linejoin="round" stroke-miterlimit="10" d="
			M24.469,85.543"/>
	</g>
</g>
<g id="rock" display="none">
	<g display="inline">
		<path d="M53.16,115.178c-0.635,0-1.15-0.516-1.15-1.15V98.454L24.018,86.522c-0.584-0.249-0.856-0.924-0.607-1.509
			c0.249-0.583,0.924-0.857,1.509-0.606l28.691,12.229c0.424,0.181,0.699,0.597,0.699,1.058v16.333
			C54.31,114.662,53.794,115.178,53.16,115.178z"/>
		<path d="M42.318,94.223c-0.426,0-0.836-0.238-1.035-0.646c-0.278-0.571-0.041-1.26,0.53-1.538l14.746-7.186
			c0.572-0.278,1.26-0.04,1.538,0.53c0.278,0.571,0.04,1.26-0.53,1.538l-14.746,7.186C42.659,94.186,42.487,94.223,42.318,94.223z"
			/>
		<g>
			<g>
				<path d="M44.11,104.277c3.225,0,3.225-5,0-5C40.886,99.277,40.886,104.277,44.11,104.277L44.11,104.277z"/>
			</g>
		</g>
		<g>
			<g>
				<path d="M44.11,114.163c3.225,0,3.225-5,0-5C40.886,109.163,40.886,114.163,44.11,114.163L44.11,114.163z"/>
			</g>
		</g>
	</g>
</g>
<g id="Fluga" display="none">
	<path display="inline" d="M47.58,87.848c-0.514,0-1.023,0.138-1.476,0.398l-2.956,1.707c-0.793-0.867-1.922-1.422-3.187-1.422
		c-1.25,0-2.37,0.541-3.161,1.392l-2.905-1.676c-0.451-0.262-0.962-0.399-1.476-0.399c-1.631,0-2.958,1.327-2.958,2.958v4.109
		c0,1.631,1.327,2.958,2.959,2.958c0.513,0,1.023-0.138,1.475-0.398l2.904-1.677c0.791,0.852,1.91,1.393,3.161,1.393
		c1.265,0,2.395-0.555,3.187-1.422l2.957,1.706c0.451,0.261,0.961,0.398,1.475,0.398c1.631,0,2.958-1.327,2.958-2.958v-4.109
		C50.538,89.175,49.21,87.848,47.58,87.848z M32.746,95.482c-0.397,0.229-0.982-0.019-0.982-0.567v-4.109
		c0-0.406,0.341-0.658,0.657-0.658c0.112,0,0.221,0.03,0.325,0.091l2.983,1.723c-0.062,0.291-0.097,0.591-0.097,0.899
		s0.035,0.609,0.097,0.899L32.746,95.482z M48.237,94.915c0,0.551-0.586,0.795-0.983,0.567l-3.05-1.761
		c0.056-0.278,0.087-0.566,0.087-0.861s-0.031-0.583-0.087-0.861l3.05-1.761c0.104-0.061,0.214-0.091,0.325-0.091
		c0.316,0,0.657,0.252,0.657,0.658V94.915z"/>
</g>
<g id="Skjorta" display="none">
	<g display="inline">
		<g>
			<path d="M40.204,100.434L22.767,86.038c-0.49-0.404-0.559-1.129-0.155-1.619c0.404-0.489,1.129-0.558,1.619-0.154l15.962,13.177
				l15.253-12.785c0.487-0.408,1.213-0.344,1.62,0.143c0.408,0.486,0.345,1.212-0.143,1.619L40.204,100.434z"/>
		</g>
		<g>
			<polygon fill="#FFFFFF" points="42.282,96.442 47.094,99.841 59.98,86.832 55.185,82.778 			"/>
			<path d="M47.226,101.342l-6.691-4.725l14.561-15.42l6.576,5.56L47.226,101.342z M44.029,96.268l2.934,2.072l11.324-11.433
				l-3.013-2.548L44.029,96.268z"/>
		</g>
		<g>
			<path d="M40.198,114.878c-0.635,0-1.15-0.516-1.15-1.15v-14.79c0-0.635,0.515-1.15,1.15-1.15c0.635,0,1.15,0.516,1.15,1.15v14.79
				C41.348,114.362,40.833,114.878,40.198,114.878z"/>
		</g>
		<g>
			<polygon fill="#FFFFFF" points="38.115,96.442 33.303,99.841 20.473,86.43 25.212,82.778 			"/>
			<path d="M33.157,101.352L18.757,86.3l6.577-5.067l14.527,15.385L33.157,101.352z M22.188,86.56l11.26,11.771l2.919-2.062
				L25.09,84.324L22.188,86.56z"/>
		</g>
	</g>
</g>
<g id="Slips" display="none">
	<path display="inline" d="M43.305,112.143c-0.065-0.619-0.303-3.495-0.397-4.495c-0.094-1-1.076-13.628-1.076-14.401
		c0-0.774-0.607-0.607-0.607-0.607l-1.268,0.024l0,0l-1.052-0.02c0,0-0.607-0.167-0.607,0.607c0,0.773-0.982,13.401-1.076,14.401
		c-0.095,1-0.333,3.877-0.397,4.495c-0.064,0.618-0.111,0.678,0.172,1.041c0.283,0.363,3.068,3.91,3.068,3.91v-0.005l0,0
		c0,0,2.785-3.547,3.068-3.91C43.417,112.82,43.37,112.761,43.305,112.143z"/>
	<path display="inline" d="M42.284,90.52c-0.464,0.979-0.57,1.273-1.274,1.273h-1.762c-0.704,0-0.942-0.418-1.274-1.273
		l-0.755-2.787c0-0.704,0.57-1.274,1.274-1.274h3.145c0.704,0,1.274,0.57,1.274,1.274L42.284,90.52z"/>
</g>
<g id="Penna" display="none">
	<g display="inline">
		<path d="M41.061,91.368c-6.255,0-12.379-1.748-17.242-4.922c-0.532-0.347-0.682-1.059-0.335-1.592
			c0.346-0.532,1.061-0.682,1.591-0.334c4.494,2.933,10.171,4.547,15.985,4.547c5.64,0,10.975-1.449,15.428-4.193
			c0.54-0.33,1.249-0.164,1.582,0.376c0.333,0.541,0.165,1.249-0.376,1.583C52.879,89.8,47.127,91.368,41.061,91.368z"/>
	</g>
	<g display="inline">
		<path d="M55.925,114.878l-5.572-5.163v-8.175h11.216v8.573L55.925,114.878z M52.653,108.711l3.343,3.097l3.272-2.763v-5.204
			h-6.615V108.711z"/>
	</g>
	<g display="inline">
		<polyline points="52.567,102.02 52.567,99.019 54.028,96.905 55.321,99.12 55.321,102.02 		"/>
	</g>
	<g display="inline">
		<rect x="56.275" y="93.79" width="2.937" height="8.9"/>
	</g>
</g>
<g id="T-shirt" display="none">
	<g display="inline">
		<path d="M41.061,91.368c-6.255,0-12.379-1.748-17.242-4.922c-0.532-0.347-0.682-1.059-0.335-1.592
			c0.346-0.532,1.061-0.682,1.591-0.334c4.494,2.933,10.171,4.547,15.985,4.547c5.64,0,10.975-1.449,15.428-4.193
			c0.54-0.33,1.249-0.164,1.582,0.376c0.333,0.541,0.165,1.249-0.376,1.583C52.879,89.8,47.127,91.368,41.061,91.368z"/>
	</g>
	<g display="inline">
		<path d="M41.061,91.368c-6.255,0-12.379-1.748-17.242-4.922c-0.532-0.347-0.682-1.059-0.335-1.592
			c0.346-0.532,1.061-0.682,1.591-0.334c4.494,2.933,10.171,4.547,15.985,4.547c5.64,0,10.975-1.449,15.428-4.193
			c0.54-0.33,1.249-0.164,1.582,0.376c0.333,0.541,0.165,1.249-0.376,1.583C52.879,89.8,47.127,91.368,41.061,91.368z"/>
	</g>
</g>
<g id="Layer_28" display="none">
</g>
</svg>
