<?xml version="1.0" encoding="utf-8"?>
<!-- Generated by IcoMoon.io -->
<!DOCTYPE svg PUBLIC "-//W3C//DTD SVG 1.1//EN" "http://www.w3.org/Graphics/SVG/1.1/DTD/svg11.dtd">
<svg version="1.1" xmlns="http://www.w3.org/2000/svg" xmlns:xlink="http://www.w3.org/1999/xlink" width="85" height="128" viewBox="0 0 85 128">
<g>
</g>
	<path d="M58.59 35.469c-4.486-2.774-9.629-4.277-14.91-4.396v-3.779c1.196 0.483 2.74 0.716 4.233 0.716 3.066 0 6.366-0.974 6.366-3.111 0-2.138-3.3-3.111-6.366-3.111-1.992 0-4.079 0.415-5.299 1.29-1.22-0.876-3.307-1.29-5.3-1.29-3.066 0-6.366 0.974-6.366 3.111 0 2.138 3.3 3.111 6.366 3.111 1.492 0 3.038-0.233 4.234-0.716v3.805c-4.814 0.238-9.506 1.632-13.651 4.093l-0.837 0.497 0.42 0.88c2.164 4.531 8.525 7.574 15.827 7.574 7.072 0 13.367-2.92 15.666-7.268l0.467-0.881-0.849-0.525zM47.914 23.921c2.405 0 3.83 0.631 4.18 0.978-0.35 0.347-1.775 0.978-4.18 0.978s-3.83-0.631-4.18-0.978c0.35-0.347 1.775-0.978 4.18-0.978zM37.314 25.876c-2.405 0-3.83-0.63-4.18-0.978 0.35-0.348 1.775-0.978 4.18-0.978s3.831 0.63 4.181 0.978c-0.35 0.348-1.776 0.978-4.181 0.978zM43.306 42.010c-5.886 0-11.197-2.215-13.401-5.489 0.125-0.067 0.246-0.139 0.372-0.204 0.234-0.123 0.469-0.24 0.706-0.355 0.298-0.145 0.597-0.284 0.9-0.418 0.24-0.107 0.482-0.21 0.725-0.309 0.307-0.126 0.618-0.243 0.929-0.357 0.244-0.090 0.489-0.179 0.735-0.261 0.318-0.107 0.64-0.204 0.962-0.299 0.245-0.072 0.491-0.146 0.738-0.212 0.332-0.087 0.666-0.163 1.001-0.239 0.243-0.054 0.484-0.113 0.728-0.161 0.352-0.069 0.706-0.124 1.060-0.179 0.23-0.036 0.46-0.078 0.692-0.109 0.394-0.051 0.79-0.085 1.186-0.12 0.195-0.017 0.389-0.042 0.586-0.054 0.593-0.038 1.188-0.060 1.785-0.060 0.619 0 1.235 0.022 1.85 0.064 0.203 0.014 0.404 0.041 0.607 0.059 0.41 0.036 0.819 0.072 1.226 0.128 0.241 0.032 0.48 0.078 0.72 0.116 0.365 0.059 0.73 0.117 1.091 0.191 0.253 0.051 0.504 0.114 0.755 0.173 0.344 0.080 0.688 0.161 1.029 0.254 0.256 0.070 0.51 0.149 0.764 0.227 0.331 0.101 0.66 0.204 0.986 0.317 0.256 0.089 0.509 0.184 0.763 0.282 0.319 0.122 0.637 0.246 0.95 0.38 0.252 0.107 0.5 0.219 0.749 0.333 0.309 0.142 0.615 0.29 0.92 0.444 0.245 0.124 0.489 0.251 0.731 0.383 0.13 0.070 0.257 0.147 0.386 0.221-2.302 3.179-7.444 5.257-13.232 5.257z" fill="#000000" />
</svg>
