<?xml version="1.0" encoding="utf-8"?>
<!-- Generated by IcoMoon.io -->
<!DOCTYPE svg PUBLIC "-//W3C//DTD SVG 1.1//EN" "http://www.w3.org/Graphics/SVG/1.1/DTD/svg11.dtd">
<svg version="1.1" xmlns="http://www.w3.org/2000/svg" xmlns:xlink="http://www.w3.org/1999/xlink" width="85" height="128" viewBox="0 0 85 128">
<g>
</g>
	<path d="M29.261 68.48c0 0.448-0.363 0.811-0.811 0.811s-0.811-0.363-0.811-0.811c0-0.448 0.363-0.811 0.811-0.811 0.448 0 0.811 0.363 0.811 0.811z" fill="#000000" />
	<path d="M31.42 66.051c0 0.448-0.363 0.811-0.811 0.811-0.448 0-0.811-0.363-0.811-0.811 0-0.448 0.363-0.811 0.811-0.811 0.448 0 0.811 0.363 0.811 0.811z" fill="#000000" />
	<path d="M27.97 65.403c0 0.448-0.363 0.811-0.811 0.811-0.448 0-0.811-0.363-0.811-0.811 0-0.448 0.363-0.811 0.811-0.811 0.448 0 0.811 0.363 0.811 0.811z" fill="#000000" />
	<path d="M58.324 68.48c0 0.448-0.363 0.811-0.811 0.811s-0.811-0.363-0.811-0.811c0-0.448 0.363-0.811 0.811-0.811 0.448 0 0.811 0.363 0.811 0.811z" fill="#000000" />
	<path d="M56.166 66.051c0 0.448-0.363 0.811-0.811 0.811s-0.811-0.363-0.811-0.811c0-0.448 0.363-0.811 0.811-0.811 0.448 0 0.811 0.363 0.811 0.811z" fill="#000000" />
	<path d="M59.616 65.403c0 0.448-0.363 0.811-0.811 0.811-0.448 0-0.811-0.363-0.811-0.811 0-0.448 0.363-0.811 0.811-0.811 0.448 0 0.811 0.363 0.811 0.811z" fill="#000000" />
</svg>
