<?xml version="1.0" encoding="utf-8"?>
<!-- Generated by IcoMoon.io -->
<!DOCTYPE svg PUBLIC "-//W3C//DTD SVG 1.1//EN" "http://www.w3.org/Graphics/SVG/1.1/DTD/svg11.dtd">
<svg version="1.1" xmlns="http://www.w3.org/2000/svg" xmlns:xlink="http://www.w3.org/1999/xlink" width="85" height="128" viewBox="0 0 85 128">
<g>
</g>
	<path d="M70.85 52.421l-0.618-2.698-7.577 3.556v-2.299h-18.256v2.456c-0.53-0.128-1.046-0.087-1.528 0.061v-2.517h-18.256v2.404l-8.237-3.725-1.623 2.319 9.936 4.657c0.552 4.508 4.398 8.012 9.053 8.012 4.776 0 8.699-3.688 9.089-8.365 0.458-0.233 1.014-0.342 1.601-0.068 0.357 4.708 4.294 8.433 9.092 8.433 4.765 0 8.683-3.67 9.088-8.331l8.235-3.897zM40.237 55.522c0 3.58-2.912 6.493-6.492 6.493-3.58 0-6.493-2.913-6.493-6.493v-1.904h12.986v1.904zM60.020 55.522c0 3.58-2.913 6.493-6.493 6.493-3.58 0-6.492-2.913-6.492-6.493v-1.904h12.986v1.904z" fill="#000000" />
</svg>
