<?xml version="1.0" encoding="utf-8"?>
<!-- Generated by IcoMoon.io -->
<!DOCTYPE svg PUBLIC "-//W3C//DTD SVG 1.1//EN" "http://www.w3.org/Graphics/SVG/1.1/DTD/svg11.dtd">
<svg version="1.1" xmlns="http://www.w3.org/2000/svg" xmlns:xlink="http://www.w3.org/1999/xlink" width="85" height="128" viewBox="0 0 85 128">
<g>
</g>
	<path d="M50.752 93.704c-0.548 0-1.091 0.147-1.574 0.424l-3.153 1.821c-0.845-0.926-2.050-1.517-3.398-1.517-1.333 0-2.528 0.577-3.372 1.485l-3.099-1.788c-0.481-0.278-1.026-0.426-1.574-0.426-1.74 0-3.155 1.415-3.155 3.155v4.383c0 1.74 1.415 3.155 3.156 3.155 0.547 0 1.090-0.147 1.573-0.424l3.098-1.789c0.844 0.908 2.038 1.486 3.372 1.486 1.349 0 2.554-0.592 3.4-1.518l3.154 1.821c0.481 0.278 1.025 0.424 1.573 0.424 1.74 0 3.155-1.415 3.155-3.155v-4.383c0-1.74-1.416-3.155-3.155-3.155zM34.929 101.849c-0.423 0.244-1.047-0.020-1.047-0.605v-4.383c0-0.434 0.364-0.702 0.701-0.702 0.12 0 0.236 0.032 0.347 0.097l3.183 1.837c-0.066 0.31-0.103 0.63-0.103 0.96s0.037 0.65 0.103 0.959l-3.183 1.837zM51.453 101.243c0 0.588-0.625 0.848-1.047 0.605l-3.253-1.878c0.060-0.296 0.093-0.604 0.093-0.918 0-0.315-0.033-0.622-0.093-0.918l3.253-1.878c0.111-0.065 0.228-0.097 0.347-0.097 0.337 0 0.701 0.268 0.701 0.702v4.384z" fill="#000000" />
</svg>
