<?xml version="1.0" encoding="utf-8"?>
<!-- Generator: Adobe Illustrator 17.1.0, SVG Export Plug-In . SVG Version: 6.00 Build 0)  -->
<!DOCTYPE svg PUBLIC "-//W3C//DTD SVG 1.1//EN" "http://www.w3.org/Graphics/SVG/1.1/DTD/svg11.dtd">
<svg version="1.1" xmlns="http://www.w3.org/2000/svg" xmlns:xlink="http://www.w3.org/1999/xlink" x="0px" y="0px"
	 viewBox="0 0 80 120" enable-background="new 0 0 80 120" xml:space="preserve">
<g id="Kropp" display="none">
	<g display="inline">
		<path d="M23.904,84.457c-11.088,5.629-17.977,16.845-17.977,29.271c0,0.635,0.516,1.15,1.15,1.15s1.15-0.515,1.15-1.15
			c0-11.556,6.405-21.986,16.717-27.22c0.566-0.288,0.792-0.979,0.505-1.546C25.162,84.396,24.471,84.171,23.904,84.457z"/>
		<path d="M57.636,84.844c-0.564-0.29-1.259-0.066-1.548,0.499c-0.29,0.565-0.066,1.258,0.499,1.548
			C66.835,92.143,73.2,102.553,73.2,114.059c0,0.635,0.516,1.15,1.15,1.15s1.15-0.515,1.15-1.15
			C75.501,101.686,68.655,90.491,57.636,84.844z"/>
	</g>
</g>
<g id="Huvud" display="none">
	<path display="inline" d="M46.726,68.475c-1.801,1.361-3.951,2.08-6.215,2.08c-2.48,0-4.877-0.892-6.75-2.512
		c-0.472-0.407-1.183-0.356-1.589,0.115c-0.407,0.471-0.355,1.182,0.115,1.589c2.282,1.974,5.204,3.061,8.224,3.061
		c2.758,0,5.377-0.876,7.574-2.534c0.497-0.375,0.595-1.081,0.22-1.578C47.929,68.199,47.222,68.1,46.726,68.475z"/>
	<path display="inline" d="M68.225,56.994c0-15.444-12.565-28.01-28.01-28.01s-28.01,12.565-28.01,28.01s12.565,28.01,28.01,28.01
		S68.225,72.438,68.225,56.994z M65.824,56.994c0,14.121-11.488,25.609-25.609,25.609S14.605,71.115,14.605,56.994
		s11.488-25.609,25.609-25.609S65.824,42.873,65.824,56.994z"/>
	<circle display="inline" cx="31.07" cy="54.037" r="1.966"/>
	<circle display="inline" cx="50.136" cy="54.001" r="1.966"/>
</g>
<g id="Hipstermössa" display="none">
	<g display="inline">
		<path d="M14.488,46.143c-0.555,0-1.044-0.403-1.134-0.969c-0.1-0.627,0.327-1.217,0.954-1.317l47.65-7.612
			c0.639-0.101,1.218,0.328,1.317,0.954c0.1,0.627-0.327,1.217-0.954,1.317l-47.65,7.612C14.61,46.138,14.549,46.143,14.488,46.143z
			"/>
	</g>
</g>
<g id="Top_hat" display="none">
	<g display="inline">
		<polygon fill="#FFFFFF" points="21.412,24.57 21.412,32.237 15.103,32.237 15.103,37.57 65.103,37.57 65.103,32.57 56.936,32.57 
			56.936,17.049 22.77,16.091 22.77,24.57 		"/>
		<path d="M58.588,31.375V26.07V5.403H21.412V26.07v5.305H13.75v7.028h6.232h40.035h6.232v-7.028H58.588z M23.412,7.403h33.176
			V26.07H23.412V7.403z M56.588,28.07v3.305H23.412V28.07H56.588z M64.25,36.403h-4.232H19.982H15.75v-3.028h5.662h2h33.176h2h5.662
			V36.403z"/>
	</g>
</g>
<g id="Propellerhatt" display="none">
	<path display="inline" d="M54.928,33.252c-4.206-2.601-9.027-4.01-13.978-4.121v-3.543c1.121,0.453,2.569,0.671,3.968,0.671
		c2.874,0,5.968-0.913,5.968-2.917c0-2.004-3.094-2.917-5.968-2.917c-1.868,0-3.824,0.389-4.968,1.209
		c-1.144-0.821-3.1-1.209-4.969-1.209c-2.874,0-5.968,0.913-5.968,2.917c0,2.004,3.094,2.917,5.968,2.917
		c1.399,0,2.848-0.218,3.969-0.671v3.567c-4.513,0.223-8.912,1.53-12.798,3.837l-0.785,0.466l0.394,0.825
		c2.029,4.248,7.992,7.101,14.838,7.101c6.63,0,12.532-2.738,14.687-6.814l0.438-0.826L54.928,33.252z M44.919,22.426
		c2.255,0,3.591,0.592,3.919,0.917c-0.328,0.325-1.664,0.917-3.919,0.917S41.328,23.668,41,23.343
		C41.328,23.018,42.664,22.426,44.919,22.426z M34.982,24.259c-2.255,0-3.591-0.591-3.919-0.917
		c0.328-0.326,1.664-0.917,3.919-0.917s3.592,0.591,3.92,0.917C38.574,23.668,37.237,24.259,34.982,24.259z M40.599,39.384
		c-5.518,0-10.497-2.077-12.563-5.146c0.117-0.063,0.231-0.13,0.349-0.191c0.219-0.115,0.44-0.225,0.662-0.333
		c0.279-0.136,0.56-0.266,0.844-0.392c0.225-0.1,0.452-0.197,0.68-0.29c0.288-0.118,0.579-0.228,0.871-0.335
		c0.229-0.084,0.458-0.168,0.689-0.245c0.298-0.1,0.6-0.191,0.902-0.28c0.23-0.068,0.46-0.137,0.692-0.199
		c0.311-0.082,0.624-0.153,0.938-0.224c0.228-0.051,0.454-0.106,0.683-0.151c0.33-0.065,0.662-0.116,0.994-0.168
		c0.216-0.034,0.431-0.073,0.649-0.102c0.369-0.048,0.741-0.08,1.112-0.112c0.183-0.016,0.365-0.039,0.549-0.051
		c0.556-0.036,1.114-0.056,1.673-0.056c0.58,0,1.158,0.021,1.734,0.06c0.19,0.013,0.379,0.038,0.569,0.055
		c0.384,0.034,0.768,0.068,1.149,0.12c0.226,0.03,0.45,0.073,0.675,0.109c0.342,0.055,0.684,0.11,1.023,0.179
		c0.237,0.048,0.472,0.107,0.708,0.162c0.323,0.075,0.645,0.151,0.965,0.238c0.24,0.066,0.478,0.14,0.716,0.213
		c0.31,0.095,0.619,0.191,0.924,0.297c0.24,0.083,0.477,0.173,0.715,0.264c0.299,0.114,0.597,0.231,0.891,0.356
		c0.236,0.1,0.469,0.205,0.702,0.312c0.29,0.133,0.577,0.272,0.863,0.416c0.23,0.116,0.458,0.235,0.685,0.359
		c0.122,0.066,0.241,0.138,0.362,0.207C50.846,37.436,46.025,39.384,40.599,39.384z"/>
</g>
<g id="Knut" display="none">
	<g display="inline">
		<path d="M63.979,46.911H42.934l-2.567-2.235l-2.411,2.235H16.45c-0.635,0-1.15-0.515-1.15-1.15s0.515-1.15,1.15-1.15h20.604
			l3.265-3.027l3.477,3.027h20.184c0.635,0,1.15,0.515,1.15,1.15S64.615,46.911,63.979,46.911z"/>
	</g>
	<g display="inline">
		<path d="M52.981,34.038c-0.635,0-1.15-0.515-1.15-1.15c0-6.335-5.154-11.489-11.489-11.489s-11.489,5.154-11.489,11.489
			c0,0.635-0.515,1.15-1.15,1.15s-1.15-0.515-1.15-1.15c0-7.603,6.186-13.789,13.789-13.789c7.603,0,13.789,6.186,13.789,13.789
			C54.131,33.524,53.617,34.038,52.981,34.038z"/>
	</g>
</g>
<g id="Sidbena" display="none">
	<g display="inline">
		<path d="M17.401,45.581c-0.635,0-1.15-0.516-1.15-1.15s0.515-1.15,1.15-1.15c23.624,0,34.668-10.223,34.776-10.326
			c0.46-0.437,1.187-0.418,1.625,0.04c0.438,0.46,0.421,1.186-0.037,1.624C53.297,35.065,42.02,45.581,17.401,45.581z"/>
	</g>
	<g display="inline">
		<path d="M63.581,45.204c-12.645,0-16.108-7.396-16.249-7.71c-0.26-0.579-0.001-1.26,0.579-1.52
			c0.576-0.262,1.255-0.004,1.517,0.572c0.127,0.273,3.095,6.356,14.153,6.356c0.635,0,1.15,0.516,1.15,1.15
			S64.216,45.204,63.581,45.204z"/>
	</g>
</g>
<g id="Runda_glasögon" display="none">
	<path display="inline" d="M65.868,49.503l-1.051-2.047l-7.927,4.071c-1.035-2.896-3.8-4.979-7.047-4.979
		c-3.7,0-6.773,2.7-7.374,6.231c-1.419-0.59-2.809-0.403-3.927,0.061c-0.576-3.561-3.663-6.292-7.383-6.292
		c-3.34,0-6.176,2.2-7.137,5.226l-8.409-4.319l-1.051,2.047l9.116,4.682c0.08,4.06,3.402,7.342,7.481,7.342
		c3.629,0,6.662-2.597,7.343-6.03c0.602-0.472,2.271-1.488,3.997-0.006c0.679,3.436,3.713,6.036,7.344,6.036
		c4.129,0,7.489-3.36,7.489-7.489c0-0.049-0.006-0.097-0.007-0.146L65.868,49.503z M31.158,59.225c-2.86,0-5.188-2.327-5.188-5.188
		c0-2.86,2.327-5.188,5.188-5.188s5.188,2.327,5.188,5.188C36.346,56.898,34.019,59.225,31.158,59.225z M49.843,59.225
		c-2.86,0-5.188-2.327-5.188-5.188c0-2.86,2.327-5.188,5.188-5.188c2.861,0,5.188,2.327,5.188,5.188
		C55.031,56.898,52.704,59.225,49.843,59.225z"/>
</g>
<g id="Vanliga_glasögon" display="none">
	<path display="inline" d="M66.422,49.145l-0.579-2.529L58.74,49.95v-2.155H41.625v2.303c-0.497-0.12-0.981-0.082-1.432,0.057v-2.36
		H23.078v2.254l-7.722-3.492l-1.522,2.174l9.315,4.366c0.518,4.226,4.123,7.511,8.487,7.511c4.477,0,8.155-3.457,8.521-7.842
		c0.429-0.218,0.951-0.321,1.501-0.064c0.335,4.414,4.026,7.906,8.524,7.906c4.467,0,8.14-3.441,8.52-7.81L66.422,49.145z
		 M37.722,52.052c0,3.356-2.73,6.087-6.086,6.087c-3.356,0-6.087-2.731-6.087-6.087v-1.785h12.174V52.052z M56.269,52.052
		c0,3.356-2.731,6.087-6.087,6.087c-3.356,0-6.086-2.731-6.086-6.087v-1.785h12.174V52.052z"/>
</g>
<g id="Trötta_ögon" display="none">
	<g display="inline">
		<path d="M31.133,60.702c-2.078,0-3.656-1.197-4.355-2.093c-0.34-0.435-0.263-1.063,0.172-1.403c0.433-0.339,1.06-0.265,1.4,0.168
			c0.198,0.245,1.995,2.327,4.849,0.736c0.484-0.266,1.092-0.096,1.36,0.388c0.269,0.482,0.096,1.091-0.387,1.36
			C33.083,60.465,32.058,60.702,31.133,60.702z"/>
	</g>
	<g display="inline">
		<path d="M50.384,60.702c-0.925,0-1.949-0.237-3.04-0.844c-0.482-0.27-0.656-0.878-0.387-1.36c0.269-0.483,0.878-0.653,1.36-0.388
			c2.944,1.642,4.769-0.635,4.845-0.731c0.34-0.437,0.969-0.513,1.404-0.173s0.512,0.969,0.172,1.403
			C54.04,59.505,52.462,60.702,50.384,60.702z"/>
	</g>
</g>
<g id="Skägg" display="none">
	<path display="inline" d="M61.348,71.367c-2.662,2.629-4.529,0.511-5.415-1.007c-0.614-1.458-1.479-2.941-2.723-4.282
		c-2.956-3.187-7.249-4.803-12.763-4.803c-5.528,0-9.823,1.617-12.764,4.806c-0.9,0.976-1.598,2.028-2.148,3.089l0.002-0.01
		c0,0-2.655,5.727-6.831,2.329c-3.596-2.927,3.008,4.399,4.913,6.491c0.006,0.125,0.011,0.22,0.013,0.246l0.054,0.669l0.51,0.436
		c0.238,0.204,5.954,5.011,15.508,5.012c0,0,0,0,0.002,0c5.5,0,10.479-2.181,16.125-5.336l1.436-0.717h0.067
		c0.003-0.042,0.015-0.236,0.02-0.53C59.188,75.347,64.555,68.2,61.348,71.367z M40.481,76.11
		c-5.55,5.796-13.616,1.158-13.616,1.158c0.019-1.656,0.366-5.911,3.229-8.999c2.301-2.48,5.783-3.738,10.352-3.738
		c4.558,0,8.042,1.258,10.355,3.741c2.816,3.02,3.244,7.158,3.291,8.92C43.495,81.485,40.481,76.11,40.481,76.11z"/>
</g>
<g id="Mustasch" display="none">
	<g id="qe46qW_1_" display="inline">
		<g>
			<path fill="#FFFFFF" d="M48.682,63.181c-0.109,0.091-0.228,0.182-0.337,0.284c-0.506,0.473-1.096,0.717-1.787,0.574
				c-0.375-0.077-0.743-0.207-1.097-0.355c-0.58-0.242-1.14-0.532-1.719-0.775c-0.435-0.182-0.896-0.279-1.374-0.239
				c-0.61,0.051-1.118,0.324-1.557,0.735c-0.208,0.195-0.399,0.409-0.595,0.612c-0.203-0.21-0.396-0.431-0.611-0.628
				c-0.515-0.474-1.113-0.759-1.828-0.728c-0.526,0.022-1.017,0.191-1.492,0.407c-0.557,0.254-1.107,0.525-1.669,0.766
				c-0.403,0.173-0.829,0.275-1.275,0.234c-0.617-0.057-1.08-0.388-1.476-0.835c-0.03-0.034-0.043-0.084-0.064-0.127
				c-0.017,0.016-0.035,0.032-0.052,0.048c0.017,0.613,0.19,1.183,0.492,1.714c0.712,1.25,1.771,2.095,3.113,2.572
				c1.721,0.611,3.325,0.397,4.76-0.779c0.084-0.069,0.13-0.052,0.211,0.005c0.297,0.209,0.588,0.436,0.909,0.602
				c1.148,0.591,2.354,0.649,3.571,0.265c1.551-0.49,2.756-1.423,3.504-2.893C48.546,64.172,48.671,63.673,48.682,63.181z"/>
			<path d="M48.682,63.181c-0.011,0.492-0.136,0.991-0.373,1.457c-0.748,1.47-1.953,2.403-3.504,2.893
				c-1.217,0.384-2.422,0.326-3.571-0.265c-0.321-0.165-0.612-0.393-0.909-0.602c-0.081-0.057-0.127-0.074-0.211-0.005
				c-1.436,1.176-3.04,1.391-4.76,0.779c-1.342-0.477-2.401-1.322-3.113-2.572c-0.302-0.531-0.476-1.101-0.492-1.714
				c0.017-0.016,0.035-0.032,0.052-0.048c0.021,0.043,0.034,0.092,0.064,0.127c0.396,0.447,0.859,0.778,1.476,0.835
				c0.446,0.041,0.872-0.061,1.275-0.234c0.563-0.241,1.112-0.512,1.669-0.766c0.475-0.216,0.966-0.385,1.492-0.407
				c0.715-0.03,1.313,0.255,1.828,0.728c0.214,0.197,0.407,0.417,0.611,0.628c0.197-0.203,0.387-0.417,0.595-0.612
				c0.439-0.411,0.947-0.684,1.557-0.735c0.478-0.04,0.939,0.057,1.374,0.239c0.58,0.243,1.139,0.533,1.719,0.775
				c0.354,0.148,0.722,0.278,1.097,0.355c0.692,0.142,1.281-0.101,1.787-0.574C48.454,63.363,48.573,63.272,48.682,63.181z"/>
		</g>
	</g>
</g>
<g id="Fräknar" display="none">
	<circle display="inline" cx="26.672" cy="64.2" r="0.76"/>
	<circle display="inline" cx="28.696" cy="61.923" r="0.76"/>
	<circle display="inline" cx="25.462" cy="61.315" r="0.76"/>
	<circle display="inline" cx="53.919" cy="64.2" r="0.76"/>
	<circle display="inline" cx="51.896" cy="61.923" r="0.76"/>
	<circle display="inline" cx="55.13" cy="61.315" r="0.76"/>
</g>
<g id="Fluga" display="none">
	<path display="inline" d="M47.58,87.848c-0.514,0-1.023,0.138-1.476,0.398l-2.956,1.707c-0.792-0.868-1.922-1.422-3.186-1.422
		c-1.25,0-2.37,0.541-3.161,1.392l-2.905-1.676c-0.451-0.261-0.962-0.399-1.476-0.399c-1.631,0-2.958,1.327-2.958,2.958v4.109
		c0,1.631,1.327,2.958,2.959,2.958c0.513,0,1.022-0.138,1.475-0.398l2.904-1.677c0.791,0.851,1.911,1.393,3.161,1.393
		c1.265,0,2.394-0.555,3.187-1.423l2.957,1.707c0.451,0.261,0.961,0.398,1.475,0.398c1.631,0,2.958-1.327,2.958-2.958v-4.109
		C50.538,89.175,49.21,87.848,47.58,87.848z M32.746,95.483c-0.397,0.229-0.982-0.019-0.982-0.567v-4.109
		c0-0.407,0.341-0.658,0.657-0.658c0.112,0,0.221,0.03,0.325,0.091l2.984,1.722c-0.062,0.291-0.097,0.591-0.097,0.9
		c0,0.309,0.035,0.609,0.097,0.899L32.746,95.483z M48.237,94.915c0,0.551-0.586,0.795-0.982,0.567l-3.05-1.761
		c0.056-0.278,0.087-0.566,0.087-0.861c0-0.295-0.031-0.583-0.087-0.861l3.05-1.761c0.104-0.061,0.214-0.091,0.325-0.091
		c0.316,0,0.657,0.251,0.657,0.658V94.915z"/>
</g>
<g id="Skjorta" display="none">
	<g display="inline">
		<g>
			<path d="M40.204,100.434L22.767,86.038c-0.49-0.404-0.559-1.129-0.155-1.619c0.404-0.489,1.129-0.558,1.619-0.154l15.962,13.177
				l15.253-12.785c0.487-0.408,1.212-0.344,1.62,0.143c0.408,0.486,0.344,1.212-0.143,1.619L40.204,100.434z"/>
		</g>
		<g>
			<polygon fill="#FFFFFF" points="42.282,96.443 47.094,99.841 59.98,86.832 55.185,82.779 			"/>
			<path d="M47.226,101.342l-6.69-4.725l14.561-15.42l6.577,5.56L47.226,101.342z M44.029,96.268l2.934,2.072l11.325-11.433
				l-3.013-2.548L44.029,96.268z"/>
		</g>
		<g>
			<path d="M40.198,114.878c-0.635,0-1.15-0.516-1.15-1.15v-14.79c0-0.635,0.515-1.15,1.15-1.15s1.15,0.516,1.15,1.15v14.79
				C41.348,114.362,40.834,114.878,40.198,114.878z"/>
		</g>
		<g>
			<polygon fill="#FFFFFF" points="38.115,96.443 33.303,99.841 20.473,86.43 25.212,82.779 			"/>
			<path d="M33.157,101.352L18.757,86.3l6.577-5.067l14.527,15.385L33.157,101.352z M22.189,86.56l11.26,11.771l2.919-2.062
				L25.09,84.324L22.189,86.56z"/>
		</g>
	</g>
</g>
<g id="Slips" display="none">
	<path display="inline" d="M43.305,112.143c-0.065-0.619-0.302-3.495-0.397-4.495c-0.094-1-1.076-13.628-1.076-14.402
		c0-0.774-0.607-0.607-0.607-0.607l-1.268,0.024v0l-1.052-0.02c0,0-0.607-0.167-0.607,0.607c0,0.774-0.982,13.402-1.076,14.402
		c-0.094,1-0.332,3.876-0.397,4.495c-0.065,0.619-0.112,0.678,0.171,1.041s3.068,3.91,3.068,3.91v-0.006v0.001
		c0,0,2.785-3.547,3.068-3.91C43.417,112.821,43.369,112.761,43.305,112.143z"/>
	<path display="inline" d="M42.283,90.519c-0.463,0.98-0.57,1.274-1.274,1.274h-1.762c-0.704,0-0.942-0.418-1.274-1.274
		l-0.755-2.787c0-0.704,0.57-1.274,1.274-1.274h3.145c0.704,0,1.274,0.57,1.274,1.274L42.283,90.519z"/>
</g>
<g id="Penna">
	<g>
		<path d="M41.061,91.368c-6.255,0-12.379-1.748-17.242-4.922c-0.532-0.347-0.682-1.06-0.334-1.592
			c0.346-0.532,1.061-0.682,1.591-0.334c4.494,2.933,10.171,4.547,15.985,4.547c5.64,0,10.975-1.449,15.428-4.193
			c0.54-0.33,1.249-0.164,1.582,0.376c0.333,0.541,0.165,1.249-0.376,1.583C52.879,89.8,47.127,91.368,41.061,91.368z"/>
	</g>
	<g>
		<path d="M55.926,114.878l-5.573-5.163v-8.175h11.215v8.573L55.926,114.878z M52.653,108.711l3.343,3.097l3.272-2.763v-5.204
			h-6.616V108.711z"/>
	</g>
	<g>
		<polyline points="52.567,102.02 52.567,99.019 54.028,96.906 55.321,99.12 55.321,102.02 		"/>
	</g>
	<g>
		<rect x="56.275" y="93.79" width="2.937" height="8.9"/>
	</g>
</g>
<g id="T-shirt" display="none">
	<g display="inline">
		<path d="M41.061,91.368c-6.255,0-12.379-1.748-17.242-4.922c-0.532-0.347-0.682-1.06-0.334-1.592
			c0.346-0.532,1.061-0.682,1.591-0.334c4.494,2.933,10.171,4.547,15.985,4.547c5.64,0,10.975-1.449,15.428-4.193
			c0.54-0.33,1.249-0.164,1.582,0.376c0.333,0.541,0.165,1.249-0.376,1.583C52.879,89.8,47.127,91.368,41.061,91.368z"/>
	</g>
</g>
</svg>
