<?xml version="1.0" encoding="utf-8"?>
<!-- Generated by IcoMoon.io -->
<!DOCTYPE svg PUBLIC "-//W3C//DTD SVG 1.1//EN" "http://www.w3.org/Graphics/SVG/1.1/DTD/svg11.dtd">
<svg version="1.1" xmlns="http://www.w3.org/2000/svg" xmlns:xlink="http://www.w3.org/1999/xlink" width="85" height="128" viewBox="0 0 85 128">
<g>
</g>
	<path d="M43.798 97.459c-6.672 0-13.204-1.865-18.392-5.25-0.567-0.37-0.727-1.131-0.356-1.698 0.369-0.567 1.132-0.728 1.697-0.356 4.794 3.129 10.849 4.85 17.051 4.85 6.016 0 11.707-1.546 16.456-4.472 0.576-0.352 1.332-0.175 1.688 0.401 0.355 0.577 0.176 1.332-0.401 1.689-5.137 3.165-11.273 4.837-17.743 4.837z" fill="#000000" />
	<path d="M59.654 122.537l-5.944-5.507v-8.72h11.963v9.145l-6.018 5.083zM56.163 115.958l3.566 3.303 3.49-2.947v-5.551h-7.057v5.195z" fill="#000000" />
	<path d="M56.072 108.821v-3.201l1.558-2.254 1.379 2.362v3.093z" fill="#000000" />
	<path d="M60.027 100.043h3.133v9.493h-3.133v-9.493z" fill="#000000" />
</svg>
