<?xml version="1.0" encoding="utf-8"?>
<!-- Generated by IcoMoon.io -->
<!DOCTYPE svg PUBLIC "-//W3C//DTD SVG 1.1//EN" "http://www.w3.org/Graphics/SVG/1.1/DTD/svg11.dtd">
<svg version="1.1" xmlns="http://www.w3.org/2000/svg" xmlns:xlink="http://www.w3.org/1999/xlink" width="85" height="128" viewBox="0 0 85 128">
<g>
</g>
	<path d="M46.192 119.619c-0.069-0.66-0.322-3.728-0.423-4.795-0.1-1.067-1.148-14.537-1.148-15.362 0-0.826-0.648-0.647-0.648-0.647l-1.352 0.026-1.122-0.021c0 0-0.648-0.178-0.648 0.647 0 0.826-1.047 14.296-1.148 15.362-0.1 1.067-0.354 4.134-0.423 4.795-0.069 0.66-0.12 0.723 0.182 1.11s3.273 4.171 3.273 4.171v-0.005c0 0 2.971-3.784 3.273-4.171 0.304-0.386 0.253-0.45 0.184-1.109z" fill="#000000" />
	<path d="M45.102 96.554c-0.494 1.045-0.608 1.359-1.359 1.359h-1.88c-0.751 0-1.005-0.446-1.359-1.359l-0.805-2.973c0-0.751 0.608-1.359 1.359-1.359h3.355c0.751 0 1.359 0.608 1.359 1.359l-0.67 2.973z" fill="#000000" />
</svg>
