<?xml version="1.0" encoding="utf-8"?>
<!-- Generator: Adobe Illustrator 18.0.0, SVG Export Plug-In . SVG Version: 6.00 Build 0)  -->
<!DOCTYPE svg PUBLIC "-//W3C//DTD SVG 1.1//EN" "http://www.w3.org/Graphics/SVG/1.1/DTD/svg11.dtd">
<svg version="1.1" id="Layer_1" xmlns="http://www.w3.org/2000/svg" xmlns:xlink="http://www.w3.org/1999/xlink" x="0px" y="0px"
	 viewBox="0 0 58.5 56.4" enable-background="new 0 0 58.5 56.4" xml:space="preserve">
<path fill-rule="evenodd" clip-rule="evenodd" fill="#fff" d="M29.2,10.2c1.1-5.8,5-8.4,10.2-9.6C42.2,0,45-0.3,47.7,0.5
	c3.9,1.1,6.6,3.9,8.5,7.4c3.1,5.7,3,11.5,0.6,17.4c-1.9,4.7-4.7,8.9-7.9,12.9C43.4,44.9,37,50.8,30,56.1c-0.3,0.3-0.6,0.5-1.1,0.1
	c-8.6-6.6-16.5-13.8-22.7-22.7c-2.7-3.9-5-8-5.9-12.7C-0.9,13.5,1.1,7.2,7,2.4c2.7-2.2,5.9-2.6,9.3-2.2C18.7,0.4,21,0.9,23.2,2
	C26.5,3.7,28.6,6.3,29.2,10.2z M47.1,17.2c0.1-1.8-0.5-3.6-1.7-5.1c-0.2-0.3-0.5-0.7-0.9-0.7c-2,0-4,0.2-5.4,2.1
	c-1.5,2.1-3,4.2-4.5,6.3c-1.3,1.9-3.1,3.2-5.1,4.1c-0.3,0.1-0.6,0.2-0.9,0.1c-2.3-0.8-4.2-2-5.4-4.3c-1.3-2.4-2.8-4.6-4.4-6.8
	c-0.4-0.6-0.9-0.9-1.6-1.1c-0.8-0.2-1.6-0.3-2.4-0.4c-0.8-0.1-1.3,0.2-1.7,0.8c-1.3,1.9-1.8,4-1.4,6.2c0.5,2.3,1.5,4.3,2.7,6.3
	c3.9,6.5,9.2,11.7,14.8,16.8c0.4,0.4,0.6,0.1,0.9-0.1c1.5-1.4,2.9-2.7,4.3-4.2c3.8-3.8,7.3-7.9,10.1-12.6
	C45.7,22.4,46.9,20.1,47.1,17.2z"/>
</svg>