<?xml version="1.0" encoding="utf-8"?>
<!-- Generator: Adobe Illustrator 18.0.0, SVG Export Plug-In . SVG Version: 6.00 Build 0)  -->
<!DOCTYPE svg PUBLIC "-//W3C//DTD SVG 1.1//EN" "http://www.w3.org/Graphics/SVG/1.1/DTD/svg11.dtd">
<svg version="1.1" id="Layer_1" xmlns="http://www.w3.org/2000/svg" xmlns:xlink="http://www.w3.org/1999/xlink" x="0px" y="0px"
	 viewBox="0 0 106.1 16.5" enable-background="new 0 0 106.1 16.5" xml:space="preserve">
<g>
	<path fill="#FFFFFF" d="M9,8C8.7,6.6,7.9,5.8,6.4,5.8c-2.2,0-2.9,2.2-2.9,4.1c0,1.8,0.7,4,2.9,4c1.6,0,2.5-1,2.8-2.6h3.3
		c-0.5,3.3-2.7,5.2-6.1,5.2c-3.8,0-6.4-2.7-6.4-6.5c0-3.9,2.3-6.8,6.4-6.8c3,0,5.7,1.6,5.9,4.8H9z"/>
	<path fill="#FFFFFF" d="M13.7,0.3L17.2,0v16.2h-3.5V0.3z"/>
	<path fill="#FFFFFF" d="M25.3,3.2c4,0,6.5,2.6,6.5,6.6c0,4-2.6,6.6-6.5,6.6c-3.9,0-6.5-2.6-6.5-6.6C18.8,5.9,21.3,3.2,25.3,3.2z
		 M25.3,13.9c2.4,0,3.1-2,3.1-4c0-2-0.7-4-3.1-4c-2.3,0-3,2-3,4C22.2,11.9,23,13.9,25.3,13.9z"/>
	<path fill="#FFFFFF" d="M45.1,16.2h-3.3v-1.8h-0.1c-0.9,1.4-2.4,2.1-3.8,2.1c-3.7,0-4.6-2.1-4.6-5.2V3.6h3.5v7.1
		c0,2.1,0.6,3.1,2.2,3.1c1.9,0,2.7-1,2.7-3.6V3.6h3.5V16.2z"/>
	<path fill="#FFFFFF" d="M56,14.6L56,14.6c-0.9,1.4-2.2,1.9-3.9,1.9c-3.8,0-5.6-3.2-5.6-6.7c0-3.4,1.9-6.5,5.6-6.5
		c1.5,0,2.9,0.6,3.7,1.9h0V0.3L59.3,0v16.2H56V14.6z M53,5.8c-2.3,0-3,2-3,4c0,2,0.9,4,3,4c2.3,0,3-2,3-4.1C56,7.8,55.2,5.8,53,5.8z
		"/>
	<path fill="#FFFFFF" d="M61.2,3.6h3.3v1.8h0.1c0.9-1.4,2.4-2.1,3.8-2.1c3.7,0,4.6,2.1,4.6,5.2v7.7h-3.5V9.1C69.5,7,68.9,6,67.3,6
		c-1.9,0-2.7,1-2.7,3.6v6.6h-3.5V3.6z"/>
	<path fill="#FFFFFF" d="M75,3.6h3.5v12.6H75V3.6z"/>
	<path fill="#FFFFFF" d="M80.4,3.6h3.3v1.8h0.1c0.9-1.4,2.4-2.1,3.8-2.1c3.7,0,4.6,2.1,4.6,5.2v7.7h-3.5V9.1C88.8,7,88.2,6,86.6,6
		c-1.9,0-2.7,1-2.7,3.6v6.6h-3.5V3.6z"/>
	<path fill="#FFFFFF" d="M97,10.7c0.1,2.2,1.1,3.2,3.1,3.2c1.4,0,2.5-0.9,2.7-1.6h3c-1,3-3,4.2-5.9,4.2c-4,0-6.4-2.7-6.4-6.6
		c0-3.8,2.6-6.6,6.4-6.6c4.3,0,6.4,3.6,6.1,7.5H97z M102.6,8.5c-0.3-1.8-1.1-2.7-2.8-2.7c-2.2,0-2.8,1.7-2.9,2.7H102.6z"/>
</g>
</svg>
