<?xml version="1.0" encoding="utf-8"?>
<!-- Generated by IcoMoon.io -->
<!DOCTYPE svg PUBLIC "-//W3C//DTD SVG 1.1//EN" "http://www.w3.org/Graphics/SVG/1.1/DTD/svg11.dtd">
<svg version="1.1" xmlns="http://www.w3.org/2000/svg" xmlns:xlink="http://www.w3.org/1999/xlink" width="80" height="120" viewBox="0 0 80 120">
<g>
</g>
	<path d="M61.348 71.367c-2.662 2.629-4.529 0.511-5.415-1.007-0.614-1.458-1.479-2.941-2.723-4.282-2.956-3.187-7.249-4.803-12.763-4.803-5.528 0-9.823 1.617-12.764 4.806-0.9 0.976-1.598 2.028-2.148 3.089l0.002-0.010c0 0-2.655 5.727-6.831 2.329-3.596-2.927 3.008 4.399 4.913 6.491 0.006 0.125 0.011 0.22 0.013 0.246l0.054 0.669 0.51 0.436c0.238 0.204 5.954 5.011 15.508 5.012 0 0 0 0 0.002 0 5.5 0 10.479-2.181 16.125-5.336l1.436-0.717h0.067c0.003-0.042 0.015-0.236 0.020-0.53 1.834-2.413 7.201-9.56 3.994-6.393zM40.481 76.11c-5.55 5.796-13.616 1.158-13.616 1.158 0.019-1.656 0.366-5.911 3.229-8.999 2.301-2.48 5.783-3.738 10.352-3.738 4.558 0 8.042 1.258 10.355 3.741 2.816 3.020 3.244 7.158 3.291 8.92-10.597 4.293-13.611-1.082-13.611-1.082z" fill="#000000" />
</svg>
