<?xml version="1.0" encoding="utf-8"?>
<!-- Generated by IcoMoon.io -->
<!DOCTYPE svg PUBLIC "-//W3C//DTD SVG 1.1//EN" "http://www.w3.org/Graphics/SVG/1.1/DTD/svg11.dtd">
<svg version="1.1" xmlns="http://www.w3.org/2000/svg" xmlns:xlink="http://www.w3.org/1999/xlink" width="80" height="120" viewBox="0 0 80 120">
<g>
</g>
	<path d="M23.904 84.457c-11.088 5.629-17.977 16.845-17.977 29.271 0 0.635 0.516 1.15 1.15 1.15s1.15-0.515 1.15-1.15c0-11.556 6.405-21.986 16.717-27.22 0.566-0.288 0.792-0.979 0.505-1.546-0.287-0.566-0.978-0.791-1.545-0.505z" fill="#000000" />
	<path d="M57.636 84.844c-0.564-0.29-1.259-0.066-1.548 0.499-0.29 0.565-0.066 1.258 0.499 1.548 10.248 5.252 16.613 15.662 16.613 27.168 0 0.635 0.516 1.15 1.15 1.15s1.15-0.515 1.15-1.15c0.001-12.373-6.845-23.568-17.864-29.215z" fill="#000000" />
</svg>
