<?xml version="1.0" encoding="utf-8"?>
<!-- Generated by IcoMoon.io -->
<!DOCTYPE svg PUBLIC "-//W3C//DTD SVG 1.1//EN" "http://www.w3.org/Graphics/SVG/1.1/DTD/svg11.dtd">
<svg version="1.1" xmlns="http://www.w3.org/2000/svg" xmlns:xlink="http://www.w3.org/1999/xlink" width="80" height="120" viewBox="0 0 80 120">
<g>
</g>
	<path d="M47.58 87.848c-0.514 0-1.023 0.138-1.476 0.398l-2.956 1.707c-0.792-0.868-1.922-1.422-3.186-1.422-1.25 0-2.37 0.541-3.161 1.392l-2.905-1.676c-0.451-0.261-0.962-0.399-1.476-0.399-1.631 0-2.958 1.327-2.958 2.958v4.109c0 1.631 1.327 2.958 2.959 2.958 0.513 0 1.022-0.138 1.475-0.398l2.904-1.677c0.791 0.851 1.911 1.393 3.161 1.393 1.265 0 2.394-0.555 3.187-1.423l2.957 1.707c0.451 0.261 0.961 0.398 1.475 0.398 1.631 0 2.958-1.327 2.958-2.958v-4.109c0-1.631-1.328-2.958-2.958-2.958zM32.746 95.483c-0.397 0.229-0.982-0.019-0.982-0.567v-4.109c0-0.407 0.341-0.658 0.657-0.658 0.112 0 0.221 0.030 0.325 0.091l2.984 1.722c-0.062 0.291-0.097 0.591-0.097 0.9 0 0.309 0.035 0.609 0.097 0.899l-2.984 1.722zM48.237 94.915c0 0.551-0.586 0.795-0.982 0.567l-3.050-1.761c0.056-0.278 0.087-0.566 0.087-0.861s-0.031-0.583-0.087-0.861l3.050-1.761c0.104-0.061 0.214-0.091 0.325-0.091 0.316 0 0.657 0.251 0.657 0.658v4.11z" fill="#000000" />
</svg>
