<?xml version="1.0" encoding="utf-8"?>
<!-- Generated by IcoMoon.io -->
<!DOCTYPE svg PUBLIC "-//W3C//DTD SVG 1.1//EN" "http://www.w3.org/Graphics/SVG/1.1/DTD/svg11.dtd">
<svg version="1.1" xmlns="http://www.w3.org/2000/svg" xmlns:xlink="http://www.w3.org/1999/xlink" width="80" height="120" viewBox="0 0 80 120">
<g>
</g>
	<path d="M27.432 64.2c0 0.42-0.34 0.76-0.76 0.76s-0.76-0.34-0.76-0.76c0-0.42 0.34-0.76 0.76-0.76 0.42 0 0.76 0.34 0.76 0.76z" fill="#000000" />
	<path d="M29.456 61.923c0 0.42-0.34 0.76-0.76 0.76-0.42 0-0.76-0.34-0.76-0.76 0-0.42 0.34-0.76 0.76-0.76 0.42 0 0.76 0.34 0.76 0.76z" fill="#000000" />
	<path d="M26.222 61.315c0 0.42-0.34 0.76-0.76 0.76-0.42 0-0.76-0.34-0.76-0.76 0-0.42 0.34-0.76 0.76-0.76 0.42 0 0.76 0.34 0.76 0.76z" fill="#000000" />
	<path d="M54.679 64.2c0 0.42-0.34 0.76-0.76 0.76s-0.76-0.34-0.76-0.76c0-0.42 0.34-0.76 0.76-0.76 0.42 0 0.76 0.34 0.76 0.76z" fill="#000000" />
	<path d="M52.656 61.923c0 0.42-0.34 0.76-0.76 0.76s-0.76-0.34-0.76-0.76c0-0.42 0.34-0.76 0.76-0.76 0.42 0 0.76 0.34 0.76 0.76z" fill="#000000" />
	<path d="M55.89 61.315c0 0.42-0.34 0.76-0.76 0.76-0.42 0-0.76-0.34-0.76-0.76 0-0.42 0.34-0.76 0.76-0.76 0.42 0 0.76 0.34 0.76 0.76z" fill="#000000" />
</svg>
