<?xml version="1.0" encoding="utf-8"?>
<!-- Generated by IcoMoon.io -->
<!DOCTYPE svg PUBLIC "-//W3C//DTD SVG 1.1//EN" "http://www.w3.org/Graphics/SVG/1.1/DTD/svg11.dtd">
<svg version="1.1" xmlns="http://www.w3.org/2000/svg" xmlns:xlink="http://www.w3.org/1999/xlink" width="80" height="120" viewBox="0 0 80 120">
<g>
</g>
	<path d="M66.422 49.145l-0.579-2.529-7.103 3.334v-2.155h-17.115v2.303c-0.497-0.12-0.981-0.082-1.432 0.057v-2.36h-17.115v2.254l-7.722-3.492-1.522 2.174 9.315 4.366c0.518 4.226 4.123 7.511 8.487 7.511 4.477 0 8.155-3.457 8.521-7.842 0.429-0.218 0.951-0.321 1.501-0.064 0.335 4.414 4.026 7.906 8.524 7.906 4.467 0 8.14-3.441 8.52-7.81l7.72-3.653zM37.722 52.052c0 3.356-2.73 6.087-6.086 6.087-3.356 0-6.087-2.731-6.087-6.087v-1.785h12.174v1.785zM56.269 52.052c0 3.356-2.731 6.087-6.087 6.087-3.356 0-6.086-2.731-6.086-6.087v-1.785h12.174v1.785z" fill="#000000" />
</svg>
