<?xml version="1.0" encoding="utf-8"?>
<!-- Generated by IcoMoon.io -->
<!DOCTYPE svg PUBLIC "-//W3C//DTD SVG 1.1//EN" "http://www.w3.org/Graphics/SVG/1.1/DTD/svg11.dtd">
<svg version="1.1" xmlns="http://www.w3.org/2000/svg" xmlns:xlink="http://www.w3.org/1999/xlink" width="80" height="120" viewBox="0 0 80 120">
<g>
</g>
	<path d="M46.726 68.475c-1.801 1.361-3.951 2.080-6.215 2.080-2.48 0-4.877-0.892-6.75-2.512-0.472-0.407-1.183-0.356-1.589 0.115-0.407 0.471-0.355 1.182 0.115 1.589 2.282 1.974 5.204 3.061 8.224 3.061 2.758 0 5.377-0.876 7.574-2.534 0.497-0.375 0.595-1.081 0.22-1.578-0.376-0.497-1.083-0.596-1.579-0.221z" fill="#000000" />
	<path d="M68.225 56.994c0-15.444-12.565-28.010-28.010-28.010s-28.010 12.565-28.010 28.010 12.565 28.010 28.010 28.010 28.010-12.566 28.010-28.010zM65.824 56.994c0 14.121-11.488 25.609-25.609 25.609s-25.61-11.488-25.61-25.609 11.488-25.609 25.609-25.609 25.61 11.488 25.61 25.609z" fill="#000000" />
	<path d="M33.036 54.037c0 1.086-0.88 1.966-1.966 1.966-1.086 0-1.966-0.88-1.966-1.966 0-1.086 0.88-1.966 1.966-1.966 1.086 0 1.966 0.88 1.966 1.966z" fill="#000000" />
	<path d="M52.102 54.001c0 1.086-0.88 1.966-1.966 1.966-1.086 0-1.966-0.88-1.966-1.966 0-1.086 0.88-1.966 1.966-1.966 1.086 0 1.966 0.88 1.966 1.966z" fill="#000000" />
</svg>
