<?xml version="1.0" encoding="utf-8"?>
<!-- Generated by IcoMoon.io -->
<!DOCTYPE svg PUBLIC "-//W3C//DTD SVG 1.1//EN" "http://www.w3.org/Graphics/SVG/1.1/DTD/svg11.dtd">
<svg version="1.1" xmlns="http://www.w3.org/2000/svg" xmlns:xlink="http://www.w3.org/1999/xlink" width="80" height="120" viewBox="0 0 80 120">
<g>
</g>
	<path d="M48.682 63.181c-0.109 0.091-0.228 0.182-0.337 0.284-0.506 0.473-1.096 0.717-1.787 0.574-0.375-0.077-0.743-0.207-1.097-0.355-0.58-0.242-1.14-0.532-1.719-0.775-0.435-0.182-0.896-0.279-1.374-0.239-0.61 0.051-1.118 0.324-1.557 0.735-0.208 0.195-0.399 0.409-0.595 0.612-0.203-0.21-0.396-0.431-0.611-0.628-0.515-0.474-1.113-0.759-1.828-0.728-0.526 0.022-1.017 0.191-1.492 0.407-0.557 0.254-1.107 0.525-1.669 0.766-0.403 0.173-0.829 0.275-1.275 0.234-0.617-0.057-1.080-0.388-1.476-0.835-0.030-0.034-0.043-0.084-0.064-0.127-0.017 0.016-0.035 0.032-0.052 0.048 0.017 0.613 0.19 1.183 0.492 1.714 0.712 1.25 1.771 2.095 3.113 2.572 1.721 0.611 3.325 0.397 4.76-0.779 0.084-0.069 0.13-0.052 0.211 0.005 0.297 0.209 0.588 0.436 0.909 0.602 1.148 0.591 2.354 0.649 3.571 0.265 1.551-0.49 2.756-1.423 3.504-2.893 0.237-0.468 0.362-0.967 0.373-1.459z" fill="#000000" />
	<path d="M48.682 63.181c-0.011 0.492-0.136 0.991-0.373 1.457-0.748 1.47-1.953 2.403-3.504 2.893-1.217 0.384-2.422 0.326-3.571-0.265-0.321-0.165-0.612-0.393-0.909-0.602-0.081-0.057-0.127-0.074-0.211-0.005-1.436 1.176-3.040 1.391-4.76 0.779-1.342-0.477-2.401-1.322-3.113-2.572-0.302-0.531-0.476-1.101-0.492-1.714 0.017-0.016 0.035-0.032 0.052-0.048 0.021 0.043 0.034 0.092 0.064 0.127 0.396 0.447 0.859 0.778 1.476 0.835 0.446 0.041 0.872-0.061 1.275-0.234 0.563-0.241 1.112-0.512 1.669-0.766 0.475-0.216 0.966-0.385 1.492-0.407 0.715-0.030 1.313 0.255 1.828 0.728 0.214 0.197 0.407 0.417 0.611 0.628 0.197-0.203 0.387-0.417 0.595-0.612 0.439-0.411 0.947-0.684 1.557-0.735 0.478-0.040 0.939 0.057 1.374 0.239 0.58 0.243 1.139 0.533 1.719 0.775 0.354 0.148 0.722 0.278 1.097 0.355 0.692 0.142 1.281-0.101 1.787-0.574 0.109-0.1 0.228-0.191 0.337-0.282z" fill="#000000" />
</svg>
