<?xml version="1.0" encoding="utf-8"?>
<!-- Generated by IcoMoon.io -->
<!DOCTYPE svg PUBLIC "-//W3C//DTD SVG 1.1//EN" "http://www.w3.org/Graphics/SVG/1.1/DTD/svg11.dtd">
<svg version="1.1" xmlns="http://www.w3.org/2000/svg" xmlns:xlink="http://www.w3.org/1999/xlink" width="80" height="120" viewBox="0 0 80 120">
<g>
</g>
	<path d="M41.061 91.368c-6.255 0-12.379-1.748-17.242-4.922-0.532-0.347-0.682-1.060-0.334-1.592 0.346-0.532 1.061-0.682 1.591-0.334 4.494 2.933 10.171 4.547 15.985 4.547 5.64 0 10.975-1.449 15.428-4.193 0.54-0.33 1.249-0.164 1.582 0.376 0.333 0.541 0.165 1.249-0.376 1.583-4.816 2.967-10.568 4.535-16.634 4.535z" fill="#000000" />
	<path d="M55.926 114.878l-5.573-5.163v-8.175h11.215v8.573l-5.642 4.765zM52.653 108.711l3.343 3.097 3.272-2.763v-5.204h-6.616v4.87z" fill="#000000" />
	<path d="M52.567 102.020v-3.001l1.461-2.113 1.293 2.214v2.9z" fill="#000000" />
	<path d="M56.275 93.79h2.937v8.9h-2.937v-8.9z" fill="#000000" />
</svg>
