<?xml version="1.0" encoding="utf-8"?>
<!-- Generated by IcoMoon.io -->
<!DOCTYPE svg PUBLIC "-//W3C//DTD SVG 1.1//EN" "http://www.w3.org/Graphics/SVG/1.1/DTD/svg11.dtd">
<svg version="1.1" xmlns="http://www.w3.org/2000/svg" xmlns:xlink="http://www.w3.org/1999/xlink" width="80" height="120" viewBox="0 0 80 120">
<g>
</g>
	<path d="M63.979 46.911h-21.045l-2.567-2.235-2.411 2.235h-21.506c-0.635 0-1.15-0.515-1.15-1.15s0.515-1.15 1.15-1.15h20.604l3.265-3.027 3.477 3.027h20.184c0.635 0 1.15 0.515 1.15 1.15s-0.515 1.15-1.151 1.15z" fill="#000000" />
	<path d="M52.981 34.038c-0.635 0-1.15-0.515-1.15-1.15 0-6.335-5.154-11.489-11.489-11.489s-11.489 5.154-11.489 11.489c0 0.635-0.515 1.15-1.15 1.15s-1.15-0.515-1.15-1.15c0-7.603 6.186-13.789 13.789-13.789 7.603 0 13.789 6.186 13.789 13.789 0 0.636-0.514 1.15-1.15 1.15z" fill="#000000" />
</svg>
