<?xml version="1.0" encoding="utf-8"?>
<!-- Generated by IcoMoon.io -->
<!DOCTYPE svg PUBLIC "-//W3C//DTD SVG 1.1//EN" "http://www.w3.org/Graphics/SVG/1.1/DTD/svg11.dtd">
<svg version="1.1" xmlns="http://www.w3.org/2000/svg" xmlns:xlink="http://www.w3.org/1999/xlink" width="80" height="120" viewBox="0 0 80 120">
<g>
</g>
	<path d="M65.868 49.503l-1.051-2.047-7.927 4.071c-1.035-2.896-3.8-4.979-7.047-4.979-3.7 0-6.773 2.7-7.374 6.231-1.419-0.59-2.809-0.403-3.927 0.061-0.576-3.561-3.663-6.292-7.383-6.292-3.34 0-6.176 2.2-7.137 5.226l-8.409-4.319-1.051 2.047 9.116 4.682c0.080 4.060 3.402 7.342 7.481 7.342 3.629 0 6.662-2.597 7.343-6.030 0.602-0.472 2.271-1.488 3.997-0.006 0.679 3.436 3.713 6.036 7.344 6.036 4.129 0 7.489-3.36 7.489-7.489 0-0.049-0.006-0.097-0.007-0.146l8.543-4.388zM31.158 59.225c-2.86 0-5.188-2.327-5.188-5.188 0-2.86 2.327-5.188 5.188-5.188s5.188 2.327 5.188 5.188c0 2.861-2.327 5.188-5.188 5.188zM49.843 59.225c-2.86 0-5.188-2.327-5.188-5.188 0-2.86 2.327-5.188 5.188-5.188 2.861 0 5.188 2.327 5.188 5.188 0 2.861-2.327 5.188-5.188 5.188z" fill="#000000" />
</svg>
