<?xml version="1.0" encoding="utf-8"?>
<!-- Generated by IcoMoon.io -->
<!DOCTYPE svg PUBLIC "-//W3C//DTD SVG 1.1//EN" "http://www.w3.org/Graphics/SVG/1.1/DTD/svg11.dtd">
<svg version="1.1" xmlns="http://www.w3.org/2000/svg" xmlns:xlink="http://www.w3.org/1999/xlink" width="80" height="120" viewBox="0 0 80 120">
<g>
</g>
	<path d="M40.204 100.434l-17.437-14.396c-0.49-0.404-0.559-1.129-0.155-1.619 0.404-0.489 1.129-0.558 1.619-0.154l15.962 13.177 15.253-12.785c0.487-0.408 1.212-0.344 1.62 0.143 0.408 0.486 0.344 1.212-0.143 1.619l-16.719 14.015z" fill="#000000" />
	<path d="M42.282 96.443l4.812 3.398 12.886-13.009-4.795-4.053z" fill="#000000" />
	<path d="M47.226 101.342l-6.69-4.725 14.561-15.42 6.577 5.56-14.448 14.585zM44.029 96.268l2.934 2.072 11.325-11.433-3.013-2.548-11.246 11.909z" fill="#000000" />
	<path d="M40.198 114.878c-0.635 0-1.15-0.516-1.15-1.15v-14.79c0-0.635 0.515-1.15 1.15-1.15s1.15 0.516 1.15 1.15v14.79c0 0.634-0.514 1.15-1.15 1.15z" fill="#000000" />
	<path d="M38.115 96.443l-4.812 3.398-12.83-13.411 4.739-3.651z" fill="#000000" />
	<path d="M33.157 101.352l-14.4-15.052 6.577-5.067 14.527 15.385-6.704 4.734zM22.189 86.56l11.26 11.771 2.919-2.062-11.278-11.945-2.901 2.236z" fill="#000000" />
</svg>
