<?xml version="1.0" encoding="utf-8"?>
<!-- Generated by IcoMoon.io -->
<!DOCTYPE svg PUBLIC "-//W3C//DTD SVG 1.1//EN" "http://www.w3.org/Graphics/SVG/1.1/DTD/svg11.dtd">
<svg version="1.1" xmlns="http://www.w3.org/2000/svg" xmlns:xlink="http://www.w3.org/1999/xlink" width="80" height="120" viewBox="0 0 80 120">
<g>
</g>
	<path d="M17.401 45.581c-0.635 0-1.15-0.516-1.15-1.15s0.515-1.15 1.15-1.15c23.624 0 34.668-10.223 34.776-10.326 0.46-0.437 1.187-0.418 1.625 0.040 0.438 0.46 0.421 1.186-0.037 1.624-0.468 0.446-11.745 10.962-36.364 10.962z" fill="#000000" />
	<path d="M63.581 45.204c-12.645 0-16.108-7.396-16.249-7.71-0.26-0.579-0.001-1.26 0.579-1.52 0.576-0.262 1.255-0.004 1.517 0.572 0.127 0.273 3.095 6.356 14.153 6.356 0.635 0 1.15 0.516 1.15 1.15s-0.515 1.152-1.15 1.152z" fill="#000000" />
</svg>
