<?xml version="1.0" encoding="utf-8"?>
<!-- Generated by IcoMoon.io -->
<!DOCTYPE svg PUBLIC "-//W3C//DTD SVG 1.1//EN" "http://www.w3.org/Graphics/SVG/1.1/DTD/svg11.dtd">
<svg version="1.1" xmlns="http://www.w3.org/2000/svg" xmlns:xlink="http://www.w3.org/1999/xlink" width="80" height="120" viewBox="0 0 80 120">
<g>
</g>
	<path d="M54.928 33.252c-4.206-2.601-9.027-4.010-13.978-4.121v-3.543c1.121 0.453 2.569 0.671 3.968 0.671 2.874 0 5.968-0.913 5.968-2.917 0-2.004-3.094-2.917-5.968-2.917-1.868 0-3.824 0.389-4.968 1.209-1.144-0.821-3.1-1.209-4.969-1.209-2.874 0-5.968 0.913-5.968 2.917 0 2.004 3.094 2.917 5.968 2.917 1.399 0 2.848-0.218 3.969-0.671v3.567c-4.513 0.223-8.912 1.53-12.798 3.837l-0.785 0.466 0.394 0.825c2.029 4.248 7.992 7.101 14.838 7.101 6.63 0 12.532-2.738 14.687-6.814l0.438-0.826-0.796-0.492zM44.919 22.426c2.255 0 3.591 0.592 3.919 0.917-0.328 0.325-1.664 0.917-3.919 0.917s-3.591-0.592-3.919-0.917c0.328-0.325 1.664-0.917 3.919-0.917zM34.982 24.259c-2.255 0-3.591-0.591-3.919-0.917 0.328-0.326 1.664-0.917 3.919-0.917s3.592 0.591 3.92 0.917c-0.328 0.326-1.665 0.917-3.92 0.917zM40.599 39.384c-5.518 0-10.497-2.077-12.563-5.146 0.117-0.063 0.231-0.13 0.349-0.191 0.219-0.115 0.44-0.225 0.662-0.333 0.279-0.136 0.56-0.266 0.844-0.392 0.225-0.1 0.452-0.197 0.68-0.29 0.288-0.118 0.579-0.228 0.871-0.335 0.229-0.084 0.458-0.168 0.689-0.245 0.298-0.1 0.6-0.191 0.902-0.28 0.23-0.068 0.46-0.137 0.692-0.199 0.311-0.082 0.624-0.153 0.938-0.224 0.228-0.051 0.454-0.106 0.683-0.151 0.33-0.065 0.662-0.116 0.994-0.168 0.216-0.034 0.431-0.073 0.649-0.102 0.369-0.048 0.741-0.080 1.112-0.112 0.183-0.016 0.365-0.039 0.549-0.051 0.556-0.036 1.114-0.056 1.673-0.056 0.58 0 1.158 0.021 1.734 0.060 0.19 0.013 0.379 0.038 0.569 0.055 0.384 0.034 0.768 0.068 1.149 0.12 0.226 0.030 0.45 0.073 0.675 0.109 0.342 0.055 0.684 0.11 1.023 0.179 0.237 0.048 0.472 0.107 0.708 0.162 0.323 0.075 0.645 0.151 0.965 0.238 0.24 0.066 0.478 0.14 0.716 0.213 0.31 0.095 0.619 0.191 0.924 0.297 0.24 0.083 0.477 0.173 0.715 0.264 0.299 0.114 0.597 0.231 0.891 0.356 0.236 0.1 0.469 0.205 0.702 0.312 0.29 0.133 0.577 0.272 0.863 0.416 0.23 0.116 0.458 0.235 0.685 0.359 0.122 0.066 0.241 0.138 0.362 0.207-2.158 2.98-6.979 4.928-12.405 4.928z" fill="#000000" />
</svg>
