<?xml version="1.0" encoding="utf-8"?>
<!-- Generated by IcoMoon.io -->
<!DOCTYPE svg PUBLIC "-//W3C//DTD SVG 1.1//EN" "http://www.w3.org/Graphics/SVG/1.1/DTD/svg11.dtd">
<svg version="1.1" xmlns="http://www.w3.org/2000/svg" xmlns:xlink="http://www.w3.org/1999/xlink" width="80" height="120" viewBox="0 0 80 120">
<g>
</g>
	<path d="M43.305 112.143c-0.065-0.619-0.302-3.495-0.397-4.495-0.094-1-1.076-13.628-1.076-14.402 0-0.774-0.607-0.607-0.607-0.607l-1.268 0.024-1.052-0.020c0 0-0.607-0.167-0.607 0.607 0 0.774-0.982 13.402-1.076 14.402-0.094 1-0.332 3.876-0.397 4.495-0.065 0.619-0.112 0.678 0.171 1.041s3.068 3.91 3.068 3.91v-0.005c0 0 2.785-3.547 3.068-3.91 0.285-0.362 0.237-0.422 0.173-1.040z" fill="#000000" />
	<path d="M42.283 90.519c-0.463 0.98-0.57 1.274-1.274 1.274h-1.762c-0.704 0-0.942-0.418-1.274-1.274l-0.755-2.787c0-0.704 0.57-1.274 1.274-1.274h3.145c0.704 0 1.274 0.57 1.274 1.274l-0.628 2.787z" fill="#000000" />
</svg>
