<?xml version="1.0" encoding="utf-8"?>
<!-- Generated by IcoMoon.io -->
<!DOCTYPE svg PUBLIC "-//W3C//DTD SVG 1.1//EN" "http://www.w3.org/Graphics/SVG/1.1/DTD/svg11.dtd">
<svg version="1.1" xmlns="http://www.w3.org/2000/svg" xmlns:xlink="http://www.w3.org/1999/xlink" width="80" height="120" viewBox="0 0 80 120">
<g>
</g>
	<path d="M31.133 60.702c-2.078 0-3.656-1.197-4.355-2.093-0.34-0.435-0.263-1.063 0.172-1.403 0.433-0.339 1.060-0.265 1.4 0.168 0.198 0.245 1.995 2.327 4.849 0.736 0.484-0.266 1.092-0.096 1.36 0.388 0.269 0.482 0.096 1.091-0.387 1.36-1.089 0.607-2.114 0.844-3.039 0.844z" fill="#000000" />
	<path d="M50.384 60.702c-0.925 0-1.949-0.237-3.040-0.844-0.482-0.27-0.656-0.878-0.387-1.36 0.269-0.483 0.878-0.653 1.36-0.388 2.944 1.642 4.769-0.635 4.845-0.731 0.34-0.437 0.969-0.513 1.404-0.173s0.512 0.969 0.172 1.403c-0.698 0.896-2.276 2.093-4.354 2.093z" fill="#000000" />
</svg>
